<?xml version="1.0" encoding="UTF-8" standalone="no"?>
<svg width="100%" height="100%" viewBox="0 0 41 41" version="1.1" xmlns="http://www.w3.org/2000/svg" xmlns:xlink="http://www.w3.org/1999/xlink" xmlns:sketch="http://www.bohemiancoding.com/sketch/ns">
    <!-- Generator: Sketch 3.4.4 (17249) - http://www.bohemiancoding.com/sketch -->
    <title>colours</title>
    <desc>Created with Sketch.</desc>
    <defs></defs>
    <g id="Icons" stroke="none" stroke-width="1" fill="none" fill-rule="evenodd" sketch:type="MSPage">
        <g id="Colours" sketch:type="MSArtboardGroup" transform="translate(-4.000000, -4.000000)" fill="#000000">
            <g id="colours" sketch:type="MSLayerGroup" transform="translate(4.000000, 4.000000)">
                <path d="M31.639786,21.5276611 L35.5967045,20.6483459 L34.2777317,14.9327971 L27.5363151,16.3983224 L31.639786,21.5276611 L31.639786,21.5276611 Z M34.1311791,26.9501049 L30.4673658,22.4069763 L27.5363151,24.6052644 L33.544969,27.3897625 L34.1311791,26.9501049 L34.1311791,26.9501049 Z M32.3725487,6.43275003 L31.0535759,0.717201166 L20.941451,3.06204173 L22.2604238,8.77759059 L32.3725487,6.43275003 L32.3725487,6.43275003 Z M26.6569999,15.2259021 L33.9846266,13.4672717 L32.6656538,7.75172284 L22.5535289,10.2431159 L26.6569999,15.2259021 L26.6569999,15.2259021 Z M36.6225722,27.8294201 L37.2087824,27.6828676 L35.8898096,21.9673187 L32.5191013,22.7000814 L36.6225722,27.8294201 L36.6225722,27.8294201 Z M20.5017934,9.80345833 L16.83798,5.26032975 L8.77759059,11.5620888 L12.441404,16.1052173 L20.5017934,9.80345833 L20.5017934,9.80345833 Z M30.4673658,28.4156303 L30.7604708,27.8294201 L25.4845796,25.338027 L24.0190542,28.4156303 L30.4673658,28.4156303 L30.4673658,28.4156303 Z M29.5880506,21.2345561 L25.9242372,16.6914275 L20.0621358,21.2345561 L26.0707897,24.0190542 L29.5880506,21.2345561 L29.5880506,21.2345561 Z M13.3207192,17.2776376 L14.3465869,18.4500579 L18.743163,20.5017934 L25.1914745,15.5190072 L21.5276611,10.9758786 L13.3207192,17.2776376 L13.3207192,17.2776376 Z M15.3724547,40.1398331 L21.2345561,40.1398331 L21.2345561,29.8811556 L15.3724547,29.8811556 L15.3724547,40.1398331 L15.3724547,40.1398331 Z M18.743163,22.2604238 L15.8121123,28.4156303 L22.2604238,28.4156303 L24.0190542,24.7518169 L18.743163,22.2604238 L18.743163,22.2604238 Z M22.7000814,40.1398331 L28.5621828,40.1398331 L28.5621828,29.8811556 L22.7000814,29.8811556 L22.7000814,40.1398331 L22.7000814,40.1398331 Z M10.6827735,18.4500579 L5.40688228,15.9586648 L1.01030624,25.1914745 L6.28619749,27.6828676 L10.6827735,18.4500579 L10.6827735,18.4500579 Z M30.0277082,29.8811556 L30.0277082,40.1398331 L40.2863856,40.1398331 L40.2863856,29.8811556 L30.0277082,29.8811556 L30.0277082,29.8811556 Z M35.1570469,37.2087824 C33.9846266,37.2087824 32.9587589,36.1829146 32.9587589,35.0104943 C32.9587589,33.8380741 33.9846266,32.8122063 35.1570469,32.8122063 C36.3294672,32.8122063 37.3553349,33.8380741 37.3553349,35.0104943 C37.3553349,36.3294672 36.3294672,37.2087824 35.1570469,37.2087824 L35.1570469,37.2087824 Z M0.717201166,40.1398331 L6.57930256,40.1398331 L6.57930256,29.8811556 L0.717201166,29.8811556 L0.717201166,40.1398331 L0.717201166,40.1398331 Z M12.0017464,19.036268 L7.60517031,28.2690777 L7.89827538,28.4156303 L14.0534818,28.4156303 L17.2776376,21.5276611 L12.0017464,19.036268 L12.0017464,19.036268 Z M8.04482791,40.1398331 L13.9069293,40.1398331 L13.9069293,29.8811556 L8.04482791,29.8811556 L8.04482791,40.1398331 L8.04482791,40.1398331 Z" id="Shape" sketch:type="MSShapeGroup"></path>
            </g>
        </g>
    </g>
</svg>