<?xml version="1.0" encoding="UTF-8" standalone="no"?>
<svg width="100%" height="100%" viewBox="0 0 39 40" version="1.1" xmlns="http://www.w3.org/2000/svg" xmlns:xlink="http://www.w3.org/1999/xlink" xmlns:sketch="http://www.bohemiancoding.com/sketch/ns">
    <g id="Icons" stroke="none" stroke-width="1" fill="none" fill-rule="evenodd" sketch:type="MSPage">
        <g id="Timeline-Copy" sketch:type="MSArtboardGroup" transform="translate(-4.000000, -4.000000)" fill="#000000">
            <path d="M4.40136719,8.453125 L6.81542969,8.453125 L6.81542969,7.95507812 L5.90722656,7.95507812 L5.90722656,4.07910156 L5.31542969,4.07910156 L4.33105469,4.29589844 L4.33105469,4.83496094 L5.32128906,4.61230469 L5.32128906,7.95507812 L4.40136719,7.95507812 L4.40136719,8.453125 Z M9.02734375,8.53808594 C9.49316406,8.53808594 9.84765625,8.34765625 10.0878906,7.96386719 C10.3222656,7.58886719 10.4453125,7.03515625 10.4453125,6.27050781 C10.4453125,5.50585938 10.3222656,4.94921875 10.0878906,4.57421875 C9.84472656,4.18457031 9.48730469,4 9.02734375,4 C8.55859375,4 8.20703125,4.19042969 7.96972656,4.57421875 C7.73242188,4.95800781 7.61230469,5.5234375 7.61230469,6.27050781 C7.61230469,7.01464844 7.73242188,7.58007812 7.96972656,7.96386719 C8.20703125,8.34765625 8.55859375,8.53808594 9.02734375,8.53808594 L9.02734375,8.53808594 Z M9.02734375,8.06933594 C8.7578125,8.06933594 8.55273438,7.92871094 8.41210938,7.62402344 C8.27441406,7.33105469 8.20703125,6.87988281 8.20703125,6.27050781 C8.20703125,5.640625 8.27441406,5.20703125 8.41210938,4.9140625 C8.546875,4.61816406 8.75195312,4.46875 9.02734375,4.46875 C9.31738281,4.46875 9.51660156,4.62402344 9.6484375,4.91699219 C9.78320312,5.20996094 9.85058594,5.66113281 9.85058594,6.27050781 C9.85058594,6.87695312 9.78320312,7.328125 9.6484375,7.62402344 C9.51660156,7.9140625 9.31152344,8.06933594 9.02734375,8.06933594 L9.02734375,8.06933594 Z M9.03320312,7.29296875 C9.13574219,7.29296875 9.22363281,7.15527344 9.2734375,6.86523438 C9.31152344,6.625 9.32324219,6.35839844 9.32324219,6.27929688 C9.32324219,6.14453125 9.296875,5.86328125 9.25878906,5.66992188 C9.203125,5.39746094 9.12988281,5.2421875 9.02148438,5.2421875 C8.92480469,5.2421875 8.84863281,5.3828125 8.79296875,5.66113281 C8.74609375,5.87792969 8.734375,6.16210938 8.734375,6.25585938 C8.734375,6.38769531 8.76367188,6.68945312 8.80175781,6.87109375 C8.84863281,7.09960938 8.91015625,7.29296875 9.03320312,7.29296875 L9.03320312,7.29296875 Z M11.6259766,8.453125 L14.0400391,8.453125 L14.0400391,7.95507812 L13.1318359,7.95507812 L13.1318359,4.07910156 L12.5400391,4.07910156 L11.5556641,4.29589844 L11.5556641,4.83496094 L12.5458984,4.61230469 L12.5458984,7.95507812 L11.6259766,7.95507812 L11.6259766,8.453125 Z M16.2519531,8.53808594 C16.7177734,8.53808594 17.0722656,8.34765625 17.3125,7.96386719 C17.546875,7.58886719 17.6699219,7.03515625 17.6699219,6.27050781 C17.6699219,5.50585938 17.546875,4.94921875 17.3125,4.57421875 C17.0693359,4.18457031 16.7119141,4 16.2519531,4 C15.7832031,4 15.4316406,4.19042969 15.1943359,4.57421875 C14.9570312,4.95800781 14.8369141,5.5234375 14.8369141,6.27050781 C14.8369141,7.01464844 14.9570312,7.58007812 15.1943359,7.96386719 C15.4316406,8.34765625 15.7832031,8.53808594 16.2519531,8.53808594 L16.2519531,8.53808594 Z M16.2519531,8.06933594 C15.9824219,8.06933594 15.7773438,7.92871094 15.6367188,7.62402344 C15.4990234,7.33105469 15.4316406,6.87988281 15.4316406,6.27050781 C15.4316406,5.640625 15.4990234,5.20703125 15.6367188,4.9140625 C15.7714844,4.61816406 15.9765625,4.46875 16.2519531,4.46875 C16.5419922,4.46875 16.7412109,4.62402344 16.8730469,4.91699219 C17.0078125,5.20996094 17.0751953,5.66113281 17.0751953,6.27050781 C17.0751953,6.87695312 17.0078125,7.328125 16.8730469,7.62402344 C16.7412109,7.9140625 16.5361328,8.06933594 16.2519531,8.06933594 L16.2519531,8.06933594 Z M16.2578125,7.29296875 C16.3603516,7.29296875 16.4482422,7.15527344 16.4980469,6.86523438 C16.5361328,6.625 16.5478516,6.35839844 16.5478516,6.27929688 C16.5478516,6.14453125 16.5214844,5.86328125 16.4833984,5.66992188 C16.4277344,5.39746094 16.3544922,5.2421875 16.2460938,5.2421875 C16.1494141,5.2421875 16.0732422,5.3828125 16.0175781,5.66113281 C15.9707031,5.87792969 15.9589844,6.16210938 15.9589844,6.25585938 C15.9589844,6.38769531 15.9882812,6.68945312 16.0263672,6.87109375 C16.0732422,7.09960938 16.1347656,7.29296875 16.2578125,7.29296875 L16.2578125,7.29296875 Z M18.8505859,8.453125 L21.2646484,8.453125 L21.2646484,7.95507812 L20.3564453,7.95507812 L20.3564453,4.07910156 L19.7646484,4.07910156 L18.7802734,4.29589844 L18.7802734,4.83496094 L19.7705078,4.61230469 L19.7705078,7.95507812 L18.8505859,7.95507812 L18.8505859,8.453125 Z M23.4765625,8.53808594 C23.9423828,8.53808594 24.296875,8.34765625 24.5371094,7.96386719 C24.7714844,7.58886719 24.8945312,7.03515625 24.8945312,6.27050781 C24.8945312,5.50585938 24.7714844,4.94921875 24.5371094,4.57421875 C24.2939453,4.18457031 23.9365234,4 23.4765625,4 C23.0078125,4 22.65625,4.19042969 22.4189453,4.57421875 C22.1816406,4.95800781 22.0615234,5.5234375 22.0615234,6.27050781 C22.0615234,7.01464844 22.1816406,7.58007812 22.4189453,7.96386719 C22.65625,8.34765625 23.0078125,8.53808594 23.4765625,8.53808594 L23.4765625,8.53808594 Z M23.4765625,8.06933594 C23.2070312,8.06933594 23.0019531,7.92871094 22.8613281,7.62402344 C22.7236328,7.33105469 22.65625,6.87988281 22.65625,6.27050781 C22.65625,5.640625 22.7236328,5.20703125 22.8613281,4.9140625 C22.9960938,4.61816406 23.2011719,4.46875 23.4765625,4.46875 C23.7666016,4.46875 23.9658203,4.62402344 24.0976562,4.91699219 C24.2324219,5.20996094 24.2998047,5.66113281 24.2998047,6.27050781 C24.2998047,6.87695312 24.2324219,7.328125 24.0976562,7.62402344 C23.9658203,7.9140625 23.7607422,8.06933594 23.4765625,8.06933594 L23.4765625,8.06933594 Z M23.4824219,7.29296875 C23.5849609,7.29296875 23.6728516,7.15527344 23.7226562,6.86523438 C23.7607422,6.625 23.7724609,6.35839844 23.7724609,6.27929688 C23.7724609,6.14453125 23.7460938,5.86328125 23.7080078,5.66992188 C23.6523438,5.39746094 23.5791016,5.2421875 23.4707031,5.2421875 C23.3740234,5.2421875 23.2978516,5.3828125 23.2421875,5.66113281 C23.1953125,5.87792969 23.1835938,6.16210938 23.1835938,6.25585938 C23.1835938,6.38769531 23.2128906,6.68945312 23.2509766,6.87109375 C23.2978516,7.09960938 23.359375,7.29296875 23.4824219,7.29296875 L23.4824219,7.29296875 Z M26.0751953,8.453125 L28.4892578,8.453125 L28.4892578,7.95507812 L27.5810547,7.95507812 L27.5810547,4.07910156 L26.9892578,4.07910156 L26.0048828,4.29589844 L26.0048828,4.83496094 L26.9951172,4.61230469 L26.9951172,7.95507812 L26.0751953,7.95507812 L26.0751953,8.453125 Z M30.7011719,8.53808594 C31.1669922,8.53808594 31.5214844,8.34765625 31.7617188,7.96386719 C31.9960938,7.58886719 32.1191406,7.03515625 32.1191406,6.27050781 C32.1191406,5.50585938 31.9960938,4.94921875 31.7617188,4.57421875 C31.5185547,4.18457031 31.1611328,4 30.7011719,4 C30.2324219,4 29.8808594,4.19042969 29.6435547,4.57421875 C29.40625,4.95800781 29.2861328,5.5234375 29.2861328,6.27050781 C29.2861328,7.01464844 29.40625,7.58007812 29.6435547,7.96386719 C29.8808594,8.34765625 30.2324219,8.53808594 30.7011719,8.53808594 L30.7011719,8.53808594 Z M30.7011719,8.06933594 C30.4316406,8.06933594 30.2265625,7.92871094 30.0859375,7.62402344 C29.9482422,7.33105469 29.8808594,6.87988281 29.8808594,6.27050781 C29.8808594,5.640625 29.9482422,5.20703125 30.0859375,4.9140625 C30.2207031,4.61816406 30.4257812,4.46875 30.7011719,4.46875 C30.9912109,4.46875 31.1904297,4.62402344 31.3222656,4.91699219 C31.4570312,5.20996094 31.5244141,5.66113281 31.5244141,6.27050781 C31.5244141,6.87695312 31.4570312,7.328125 31.3222656,7.62402344 C31.1904297,7.9140625 30.9853516,8.06933594 30.7011719,8.06933594 L30.7011719,8.06933594 Z M30.7070312,7.29296875 C30.8095703,7.29296875 30.8974609,7.15527344 30.9472656,6.86523438 C30.9853516,6.625 30.9970703,6.35839844 30.9970703,6.27929688 C30.9970703,6.14453125 30.9707031,5.86328125 30.9326172,5.66992188 C30.8769531,5.39746094 30.8037109,5.2421875 30.6953125,5.2421875 C30.5986328,5.2421875 30.5224609,5.3828125 30.4667969,5.66113281 C30.4199219,5.87792969 30.4082031,6.16210938 30.4082031,6.25585938 C30.4082031,6.38769531 30.4375,6.68945312 30.4755859,6.87109375 C30.5224609,7.09960938 30.5839844,7.29296875 30.7070312,7.29296875 L30.7070312,7.29296875 Z M34.3134766,8.53808594 C34.7792969,8.53808594 35.1337891,8.34765625 35.3740234,7.96386719 C35.6083984,7.58886719 35.7314453,7.03515625 35.7314453,6.27050781 C35.7314453,5.50585938 35.6083984,4.94921875 35.3740234,4.57421875 C35.1308594,4.18457031 34.7734375,4 34.3134766,4 C33.8447266,4 33.4931641,4.19042969 33.2558594,4.57421875 C33.0185547,4.95800781 32.8984375,5.5234375 32.8984375,6.27050781 C32.8984375,7.01464844 33.0185547,7.58007812 33.2558594,7.96386719 C33.4931641,8.34765625 33.8447266,8.53808594 34.3134766,8.53808594 L34.3134766,8.53808594 Z M34.3134766,8.06933594 C34.0439453,8.06933594 33.8388672,7.92871094 33.6982422,7.62402344 C33.5605469,7.33105469 33.4931641,6.87988281 33.4931641,6.27050781 C33.4931641,5.640625 33.5605469,5.20703125 33.6982422,4.9140625 C33.8330078,4.61816406 34.0380859,4.46875 34.3134766,4.46875 C34.6035156,4.46875 34.8027344,4.62402344 34.9345703,4.91699219 C35.0693359,5.20996094 35.1367188,5.66113281 35.1367188,6.27050781 C35.1367188,6.87695312 35.0693359,7.328125 34.9345703,7.62402344 C34.8027344,7.9140625 34.5976562,8.06933594 34.3134766,8.06933594 L34.3134766,8.06933594 Z M34.3193359,7.29296875 C34.421875,7.29296875 34.5097656,7.15527344 34.5595703,6.86523438 C34.5976562,6.625 34.609375,6.35839844 34.609375,6.27929688 C34.609375,6.14453125 34.5830078,5.86328125 34.5449219,5.66992188 C34.4892578,5.39746094 34.4160156,5.2421875 34.3076172,5.2421875 C34.2109375,5.2421875 34.1347656,5.3828125 34.0791016,5.66113281 C34.0322266,5.87792969 34.0205078,6.16210938 34.0205078,6.25585938 C34.0205078,6.38769531 34.0498047,6.68945312 34.0878906,6.87109375 C34.1347656,7.09960938 34.1962891,7.29296875 34.3193359,7.29296875 L34.3193359,7.29296875 Z M36.9121094,8.453125 L39.3261719,8.453125 L39.3261719,7.95507812 L38.4179688,7.95507812 L38.4179688,4.07910156 L37.8261719,4.07910156 L36.8417969,4.29589844 L36.8417969,4.83496094 L37.8320312,4.61230469 L37.8320312,7.95507812 L36.9121094,7.95507812 L36.9121094,8.453125 Z M41.5380859,8.53808594 C42.0039062,8.53808594 42.3583984,8.34765625 42.5986328,7.96386719 C42.8330078,7.58886719 42.9560547,7.03515625 42.9560547,6.27050781 C42.9560547,5.50585938 42.8330078,4.94921875 42.5986328,4.57421875 C42.3554688,4.18457031 41.9980469,4 41.5380859,4 C41.0693359,4 40.7177734,4.19042969 40.4804688,4.57421875 C40.2431641,4.95800781 40.1230469,5.5234375 40.1230469,6.27050781 C40.1230469,7.01464844 40.2431641,7.58007812 40.4804688,7.96386719 C40.7177734,8.34765625 41.0693359,8.53808594 41.5380859,8.53808594 L41.5380859,8.53808594 Z M41.5380859,8.06933594 C41.2685547,8.06933594 41.0634766,7.92871094 40.9228516,7.62402344 C40.7851562,7.33105469 40.7177734,6.87988281 40.7177734,6.27050781 C40.7177734,5.640625 40.7851562,5.20703125 40.9228516,4.9140625 C41.0576172,4.61816406 41.2626953,4.46875 41.5380859,4.46875 C41.828125,4.46875 42.0273438,4.62402344 42.1591797,4.91699219 C42.2939453,5.20996094 42.3613281,5.66113281 42.3613281,6.27050781 C42.3613281,6.87695312 42.2939453,7.328125 42.1591797,7.62402344 C42.0273438,7.9140625 41.8222656,8.06933594 41.5380859,8.06933594 L41.5380859,8.06933594 Z M41.5439453,7.29296875 C41.6464844,7.29296875 41.734375,7.15527344 41.7841797,6.86523438 C41.8222656,6.625 41.8339844,6.35839844 41.8339844,6.27929688 C41.8339844,6.14453125 41.8076172,5.86328125 41.7695312,5.66992188 C41.7138672,5.39746094 41.640625,5.2421875 41.5322266,5.2421875 C41.4355469,5.2421875 41.359375,5.3828125 41.3037109,5.66113281 C41.2568359,5.87792969 41.2451172,6.16210938 41.2451172,6.25585938 C41.2451172,6.38769531 41.2744141,6.68945312 41.3125,6.87109375 C41.359375,7.09960938 41.4208984,7.29296875 41.5439453,7.29296875 L41.5439453,7.29296875 Z M4.40136719,15.453125 L6.81542969,15.453125 L6.81542969,14.9550781 L5.90722656,14.9550781 L5.90722656,11.0791016 L5.31542969,11.0791016 L4.33105469,11.2958984 L4.33105469,11.8349609 L5.32128906,11.6123047 L5.32128906,14.9550781 L4.40136719,14.9550781 L4.40136719,15.453125 Z M9.02734375,15.5380859 C9.49316406,15.5380859 9.84765625,15.3476562 10.0878906,14.9638672 C10.3222656,14.5888672 10.4453125,14.0351562 10.4453125,13.2705078 C10.4453125,12.5058594 10.3222656,11.9492188 10.0878906,11.5742188 C9.84472656,11.1845703 9.48730469,11 9.02734375,11 C8.55859375,11 8.20703125,11.1904297 7.96972656,11.5742188 C7.73242188,11.9580078 7.61230469,12.5234375 7.61230469,13.2705078 C7.61230469,14.0146484 7.73242188,14.5800781 7.96972656,14.9638672 C8.20703125,15.3476562 8.55859375,15.5380859 9.02734375,15.5380859 L9.02734375,15.5380859 Z M9.02734375,15.0693359 C8.7578125,15.0693359 8.55273438,14.9287109 8.41210938,14.6240234 C8.27441406,14.3310547 8.20703125,13.8798828 8.20703125,13.2705078 C8.20703125,12.640625 8.27441406,12.2070312 8.41210938,11.9140625 C8.546875,11.6181641 8.75195312,11.46875 9.02734375,11.46875 C9.31738281,11.46875 9.51660156,11.6240234 9.6484375,11.9169922 C9.78320312,12.2099609 9.85058594,12.6611328 9.85058594,13.2705078 C9.85058594,13.8769531 9.78320312,14.328125 9.6484375,14.6240234 C9.51660156,14.9140625 9.31152344,15.0693359 9.02734375,15.0693359 L9.02734375,15.0693359 Z M9.03320312,14.2929688 C9.13574219,14.2929688 9.22363281,14.1552734 9.2734375,13.8652344 C9.31152344,13.625 9.32324219,13.3583984 9.32324219,13.2792969 C9.32324219,13.1445312 9.296875,12.8632812 9.25878906,12.6699219 C9.203125,12.3974609 9.12988281,12.2421875 9.02148438,12.2421875 C8.92480469,12.2421875 8.84863281,12.3828125 8.79296875,12.6611328 C8.74609375,12.8779297 8.734375,13.1621094 8.734375,13.2558594 C8.734375,13.3876953 8.76367188,13.6894531 8.80175781,13.8710938 C8.84863281,14.0996094 8.91015625,14.2929688 9.03320312,14.2929688 L9.03320312,14.2929688 Z M11.6259766,15.453125 L14.0400391,15.453125 L14.0400391,14.9550781 L13.1318359,14.9550781 L13.1318359,11.0791016 L12.5400391,11.0791016 L11.5556641,11.2958984 L11.5556641,11.8349609 L12.5458984,11.6123047 L12.5458984,14.9550781 L11.6259766,14.9550781 L11.6259766,15.453125 Z M16.2519531,15.5380859 C16.7177734,15.5380859 17.0722656,15.3476562 17.3125,14.9638672 C17.546875,14.5888672 17.6699219,14.0351562 17.6699219,13.2705078 C17.6699219,12.5058594 17.546875,11.9492188 17.3125,11.5742188 C17.0693359,11.1845703 16.7119141,11 16.2519531,11 C15.7832031,11 15.4316406,11.1904297 15.1943359,11.5742188 C14.9570312,11.9580078 14.8369141,12.5234375 14.8369141,13.2705078 C14.8369141,14.0146484 14.9570312,14.5800781 15.1943359,14.9638672 C15.4316406,15.3476562 15.7832031,15.5380859 16.2519531,15.5380859 L16.2519531,15.5380859 Z M16.2519531,15.0693359 C15.9824219,15.0693359 15.7773438,14.9287109 15.6367188,14.6240234 C15.4990234,14.3310547 15.4316406,13.8798828 15.4316406,13.2705078 C15.4316406,12.640625 15.4990234,12.2070312 15.6367188,11.9140625 C15.7714844,11.6181641 15.9765625,11.46875 16.2519531,11.46875 C16.5419922,11.46875 16.7412109,11.6240234 16.8730469,11.9169922 C17.0078125,12.2099609 17.0751953,12.6611328 17.0751953,13.2705078 C17.0751953,13.8769531 17.0078125,14.328125 16.8730469,14.6240234 C16.7412109,14.9140625 16.5361328,15.0693359 16.2519531,15.0693359 L16.2519531,15.0693359 Z M16.2578125,14.2929688 C16.3603516,14.2929688 16.4482422,14.1552734 16.4980469,13.8652344 C16.5361328,13.625 16.5478516,13.3583984 16.5478516,13.2792969 C16.5478516,13.1445312 16.5214844,12.8632812 16.4833984,12.6699219 C16.4277344,12.3974609 16.3544922,12.2421875 16.2460938,12.2421875 C16.1494141,12.2421875 16.0732422,12.3828125 16.0175781,12.6611328 C15.9707031,12.8779297 15.9589844,13.1621094 15.9589844,13.2558594 C15.9589844,13.3876953 15.9882812,13.6894531 16.0263672,13.8710938 C16.0732422,14.0996094 16.1347656,14.2929688 16.2578125,14.2929688 L16.2578125,14.2929688 Z M18.8505859,15.453125 L21.2646484,15.453125 L21.2646484,14.9550781 L20.3564453,14.9550781 L20.3564453,11.0791016 L19.7646484,11.0791016 L18.7802734,11.2958984 L18.7802734,11.8349609 L19.7705078,11.6123047 L19.7705078,14.9550781 L18.8505859,14.9550781 L18.8505859,15.453125 Z M22.4628906,15.453125 L24.8769531,15.453125 L24.8769531,14.9550781 L23.96875,14.9550781 L23.96875,11.0791016 L23.3769531,11.0791016 L22.3925781,11.2958984 L22.3925781,11.8349609 L23.3828125,11.6123047 L23.3828125,14.9550781 L22.4628906,14.9550781 L22.4628906,15.453125 Z M27.0888672,15.5380859 C27.5546875,15.5380859 27.9091797,15.3476562 28.1494141,14.9638672 C28.3837891,14.5888672 28.5068359,14.0351562 28.5068359,13.2705078 C28.5068359,12.5058594 28.3837891,11.9492188 28.1494141,11.5742188 C27.90625,11.1845703 27.5488281,11 27.0888672,11 C26.6201172,11 26.2685547,11.1904297 26.03125,11.5742188 C25.7939453,11.9580078 25.6738281,12.5234375 25.6738281,13.2705078 C25.6738281,14.0146484 25.7939453,14.5800781 26.03125,14.9638672 C26.2685547,15.3476562 26.6201172,15.5380859 27.0888672,15.5380859 L27.0888672,15.5380859 Z M27.0888672,15.0693359 C26.8193359,15.0693359 26.6142578,14.9287109 26.4736328,14.6240234 C26.3359375,14.3310547 26.2685547,13.8798828 26.2685547,13.2705078 C26.2685547,12.640625 26.3359375,12.2070312 26.4736328,11.9140625 C26.6083984,11.6181641 26.8134766,11.46875 27.0888672,11.46875 C27.3789062,11.46875 27.578125,11.6240234 27.7099609,11.9169922 C27.8447266,12.2099609 27.9121094,12.6611328 27.9121094,13.2705078 C27.9121094,13.8769531 27.8447266,14.328125 27.7099609,14.6240234 C27.578125,14.9140625 27.3730469,15.0693359 27.0888672,15.0693359 L27.0888672,15.0693359 Z M27.0947266,14.2929688 C27.1972656,14.2929688 27.2851562,14.1552734 27.3349609,13.8652344 C27.3730469,13.625 27.3847656,13.3583984 27.3847656,13.2792969 C27.3847656,13.1445312 27.3583984,12.8632812 27.3203125,12.6699219 C27.2646484,12.3974609 27.1914062,12.2421875 27.0830078,12.2421875 C26.9863281,12.2421875 26.9101562,12.3828125 26.8544922,12.6611328 C26.8076172,12.8779297 26.7958984,13.1621094 26.7958984,13.2558594 C26.7958984,13.3876953 26.8251953,13.6894531 26.8632812,13.8710938 C26.9101562,14.0996094 26.9716797,14.2929688 27.0947266,14.2929688 L27.0947266,14.2929688 Z M29.6875,15.453125 L32.1015625,15.453125 L32.1015625,14.9550781 L31.1933594,14.9550781 L31.1933594,11.0791016 L30.6015625,11.0791016 L29.6171875,11.2958984 L29.6171875,11.8349609 L30.6074219,11.6123047 L30.6074219,14.9550781 L29.6875,14.9550781 L29.6875,15.453125 Z M34.3134766,15.5380859 C34.7792969,15.5380859 35.1337891,15.3476562 35.3740234,14.9638672 C35.6083984,14.5888672 35.7314453,14.0351562 35.7314453,13.2705078 C35.7314453,12.5058594 35.6083984,11.9492188 35.3740234,11.5742188 C35.1308594,11.1845703 34.7734375,11 34.3134766,11 C33.8447266,11 33.4931641,11.1904297 33.2558594,11.5742188 C33.0185547,11.9580078 32.8984375,12.5234375 32.8984375,13.2705078 C32.8984375,14.0146484 33.0185547,14.5800781 33.2558594,14.9638672 C33.4931641,15.3476562 33.8447266,15.5380859 34.3134766,15.5380859 L34.3134766,15.5380859 Z M34.3134766,15.0693359 C34.0439453,15.0693359 33.8388672,14.9287109 33.6982422,14.6240234 C33.5605469,14.3310547 33.4931641,13.8798828 33.4931641,13.2705078 C33.4931641,12.640625 33.5605469,12.2070312 33.6982422,11.9140625 C33.8330078,11.6181641 34.0380859,11.46875 34.3134766,11.46875 C34.6035156,11.46875 34.8027344,11.6240234 34.9345703,11.9169922 C35.0693359,12.2099609 35.1367188,12.6611328 35.1367188,13.2705078 C35.1367188,13.8769531 35.0693359,14.328125 34.9345703,14.6240234 C34.8027344,14.9140625 34.5976562,15.0693359 34.3134766,15.0693359 L34.3134766,15.0693359 Z M34.3193359,14.2929688 C34.421875,14.2929688 34.5097656,14.1552734 34.5595703,13.8652344 C34.5976562,13.625 34.609375,13.3583984 34.609375,13.2792969 C34.609375,13.1445312 34.5830078,12.8632812 34.5449219,12.6699219 C34.4892578,12.3974609 34.4160156,12.2421875 34.3076172,12.2421875 C34.2109375,12.2421875 34.1347656,12.3828125 34.0791016,12.6611328 C34.0322266,12.8779297 34.0205078,13.1621094 34.0205078,13.2558594 C34.0205078,13.3876953 34.0498047,13.6894531 34.0878906,13.8710938 C34.1347656,14.0996094 34.1962891,14.2929688 34.3193359,14.2929688 L34.3193359,14.2929688 Z M36.9121094,15.453125 L39.3261719,15.453125 L39.3261719,14.9550781 L38.4179688,14.9550781 L38.4179688,11.0791016 L37.8261719,11.0791016 L36.8417969,11.2958984 L36.8417969,11.8349609 L37.8320312,11.6123047 L37.8320312,14.9550781 L36.9121094,14.9550781 L36.9121094,15.453125 Z M41.5380859,15.5380859 C42.0039062,15.5380859 42.3583984,15.3476562 42.5986328,14.9638672 C42.8330078,14.5888672 42.9560547,14.0351562 42.9560547,13.2705078 C42.9560547,12.5058594 42.8330078,11.9492188 42.5986328,11.5742188 C42.3554688,11.1845703 41.9980469,11 41.5380859,11 C41.0693359,11 40.7177734,11.1904297 40.4804688,11.5742188 C40.2431641,11.9580078 40.1230469,12.5234375 40.1230469,13.2705078 C40.1230469,14.0146484 40.2431641,14.5800781 40.4804688,14.9638672 C40.7177734,15.3476562 41.0693359,15.5380859 41.5380859,15.5380859 L41.5380859,15.5380859 Z M41.5380859,15.0693359 C41.2685547,15.0693359 41.0634766,14.9287109 40.9228516,14.6240234 C40.7851562,14.3310547 40.7177734,13.8798828 40.7177734,13.2705078 C40.7177734,12.640625 40.7851562,12.2070312 40.9228516,11.9140625 C41.0576172,11.6181641 41.2626953,11.46875 41.5380859,11.46875 C41.828125,11.46875 42.0273438,11.6240234 42.1591797,11.9169922 C42.2939453,12.2099609 42.3613281,12.6611328 42.3613281,13.2705078 C42.3613281,13.8769531 42.2939453,14.328125 42.1591797,14.6240234 C42.0273438,14.9140625 41.8222656,15.0693359 41.5380859,15.0693359 L41.5380859,15.0693359 Z M41.5439453,14.2929688 C41.6464844,14.2929688 41.734375,14.1552734 41.7841797,13.8652344 C41.8222656,13.625 41.8339844,13.3583984 41.8339844,13.2792969 C41.8339844,13.1445312 41.8076172,12.8632812 41.7695312,12.6699219 C41.7138672,12.3974609 41.640625,12.2421875 41.5322266,12.2421875 C41.4355469,12.2421875 41.359375,12.3828125 41.3037109,12.6611328 C41.2568359,12.8779297 41.2451172,13.1621094 41.2451172,13.2558594 C41.2451172,13.3876953 41.2744141,13.6894531 41.3125,13.8710938 C41.359375,14.0996094 41.4208984,14.2929688 41.5439453,14.2929688 L41.5439453,14.2929688 Z M4.40136719,22.453125 L6.81542969,22.453125 L6.81542969,21.9550781 L5.90722656,21.9550781 L5.90722656,18.0791016 L5.31542969,18.0791016 L4.33105469,18.2958984 L4.33105469,18.8349609 L5.32128906,18.6123047 L5.32128906,21.9550781 L4.40136719,21.9550781 L4.40136719,22.453125 Z M9.02734375,22.5380859 C9.49316406,22.5380859 9.84765625,22.3476562 10.0878906,21.9638672 C10.3222656,21.5888672 10.4453125,21.0351562 10.4453125,20.2705078 C10.4453125,19.5058594 10.3222656,18.9492188 10.0878906,18.5742188 C9.84472656,18.1845703 9.48730469,18 9.02734375,18 C8.55859375,18 8.20703125,18.1904297 7.96972656,18.5742188 C7.73242188,18.9580078 7.61230469,19.5234375 7.61230469,20.2705078 C7.61230469,21.0146484 7.73242188,21.5800781 7.96972656,21.9638672 C8.20703125,22.3476562 8.55859375,22.5380859 9.02734375,22.5380859 L9.02734375,22.5380859 Z M9.02734375,22.0693359 C8.7578125,22.0693359 8.55273438,21.9287109 8.41210938,21.6240234 C8.27441406,21.3310547 8.20703125,20.8798828 8.20703125,20.2705078 C8.20703125,19.640625 8.27441406,19.2070312 8.41210938,18.9140625 C8.546875,18.6181641 8.75195312,18.46875 9.02734375,18.46875 C9.31738281,18.46875 9.51660156,18.6240234 9.6484375,18.9169922 C9.78320312,19.2099609 9.85058594,19.6611328 9.85058594,20.2705078 C9.85058594,20.8769531 9.78320312,21.328125 9.6484375,21.6240234 C9.51660156,21.9140625 9.31152344,22.0693359 9.02734375,22.0693359 L9.02734375,22.0693359 Z M9.03320312,21.2929688 C9.13574219,21.2929688 9.22363281,21.1552734 9.2734375,20.8652344 C9.31152344,20.625 9.32324219,20.3583984 9.32324219,20.2792969 C9.32324219,20.1445312 9.296875,19.8632812 9.25878906,19.6699219 C9.203125,19.3974609 9.12988281,19.2421875 9.02148438,19.2421875 C8.92480469,19.2421875 8.84863281,19.3828125 8.79296875,19.6611328 C8.74609375,19.8779297 8.734375,20.1621094 8.734375,20.2558594 C8.734375,20.3876953 8.76367188,20.6894531 8.80175781,20.8710938 C8.84863281,21.0996094 8.91015625,21.2929688 9.03320312,21.2929688 L9.03320312,21.2929688 Z M11.6259766,22.453125 L14.0400391,22.453125 L14.0400391,21.9550781 L13.1318359,21.9550781 L13.1318359,18.0791016 L12.5400391,18.0791016 L11.5556641,18.2958984 L11.5556641,18.8349609 L12.5458984,18.6123047 L12.5458984,21.9550781 L11.6259766,21.9550781 L11.6259766,22.453125 Z M16.2519531,22.5380859 C16.7177734,22.5380859 17.0722656,22.3476562 17.3125,21.9638672 C17.546875,21.5888672 17.6699219,21.0351562 17.6699219,20.2705078 C17.6699219,19.5058594 17.546875,18.9492188 17.3125,18.5742188 C17.0693359,18.1845703 16.7119141,18 16.2519531,18 C15.7832031,18 15.4316406,18.1904297 15.1943359,18.5742188 C14.9570312,18.9580078 14.8369141,19.5234375 14.8369141,20.2705078 C14.8369141,21.0146484 14.9570312,21.5800781 15.1943359,21.9638672 C15.4316406,22.3476562 15.7832031,22.5380859 16.2519531,22.5380859 L16.2519531,22.5380859 Z M16.2519531,22.0693359 C15.9824219,22.0693359 15.7773438,21.9287109 15.6367188,21.6240234 C15.4990234,21.3310547 15.4316406,20.8798828 15.4316406,20.2705078 C15.4316406,19.640625 15.4990234,19.2070312 15.6367188,18.9140625 C15.7714844,18.6181641 15.9765625,18.46875 16.2519531,18.46875 C16.5419922,18.46875 16.7412109,18.6240234 16.8730469,18.9169922 C17.0078125,19.2099609 17.0751953,19.6611328 17.0751953,20.2705078 C17.0751953,20.8769531 17.0078125,21.328125 16.8730469,21.6240234 C16.7412109,21.9140625 16.5361328,22.0693359 16.2519531,22.0693359 L16.2519531,22.0693359 Z M16.2578125,21.2929688 C16.3603516,21.2929688 16.4482422,21.1552734 16.4980469,20.8652344 C16.5361328,20.625 16.5478516,20.3583984 16.5478516,20.2792969 C16.5478516,20.1445312 16.5214844,19.8632812 16.4833984,19.6699219 C16.4277344,19.3974609 16.3544922,19.2421875 16.2460938,19.2421875 C16.1494141,19.2421875 16.0732422,19.3828125 16.0175781,19.6611328 C15.9707031,19.8779297 15.9589844,20.1621094 15.9589844,20.2558594 C15.9589844,20.3876953 15.9882812,20.6894531 16.0263672,20.8710938 C16.0732422,21.0996094 16.1347656,21.2929688 16.2578125,21.2929688 L16.2578125,21.2929688 Z M18.8505859,22.453125 L21.2646484,22.453125 L21.2646484,21.9550781 L20.3564453,21.9550781 L20.3564453,18.0791016 L19.7646484,18.0791016 L18.7802734,18.2958984 L18.7802734,18.8349609 L19.7705078,18.6123047 L19.7705078,21.9550781 L18.8505859,21.9550781 L18.8505859,22.453125 Z M22.4628906,22.453125 L24.8769531,22.453125 L24.8769531,21.9550781 L23.96875,21.9550781 L23.96875,18.0791016 L23.3769531,18.0791016 L22.3925781,18.2958984 L22.3925781,18.8349609 L23.3828125,18.6123047 L23.3828125,21.9550781 L22.4628906,21.9550781 L22.4628906,22.453125 Z M27.0888672,22.5380859 C27.5546875,22.5380859 27.9091797,22.3476562 28.1494141,21.9638672 C28.3837891,21.5888672 28.5068359,21.0351562 28.5068359,20.2705078 C28.5068359,19.5058594 28.3837891,18.9492188 28.1494141,18.5742188 C27.90625,18.1845703 27.5488281,18 27.0888672,18 C26.6201172,18 26.2685547,18.1904297 26.03125,18.5742188 C25.7939453,18.9580078 25.6738281,19.5234375 25.6738281,20.2705078 C25.6738281,21.0146484 25.7939453,21.5800781 26.03125,21.9638672 C26.2685547,22.3476562 26.6201172,22.5380859 27.0888672,22.5380859 L27.0888672,22.5380859 Z M27.0888672,22.0693359 C26.8193359,22.0693359 26.6142578,21.9287109 26.4736328,21.6240234 C26.3359375,21.3310547 26.2685547,20.8798828 26.2685547,20.2705078 C26.2685547,19.640625 26.3359375,19.2070312 26.4736328,18.9140625 C26.6083984,18.6181641 26.8134766,18.46875 27.0888672,18.46875 C27.3789062,18.46875 27.578125,18.6240234 27.7099609,18.9169922 C27.8447266,19.2099609 27.9121094,19.6611328 27.9121094,20.2705078 C27.9121094,20.8769531 27.8447266,21.328125 27.7099609,21.6240234 C27.578125,21.9140625 27.3730469,22.0693359 27.0888672,22.0693359 L27.0888672,22.0693359 Z M27.0947266,21.2929688 C27.1972656,21.2929688 27.2851562,21.1552734 27.3349609,20.8652344 C27.3730469,20.625 27.3847656,20.3583984 27.3847656,20.2792969 C27.3847656,20.1445312 27.3583984,19.8632812 27.3203125,19.6699219 C27.2646484,19.3974609 27.1914062,19.2421875 27.0830078,19.2421875 C26.9863281,19.2421875 26.9101562,19.3828125 26.8544922,19.6611328 C26.8076172,19.8779297 26.7958984,20.1621094 26.7958984,20.2558594 C26.7958984,20.3876953 26.8251953,20.6894531 26.8632812,20.8710938 C26.9101562,21.0996094 26.9716797,21.2929688 27.0947266,21.2929688 L27.0947266,21.2929688 Z M29.6875,22.453125 L32.1015625,22.453125 L32.1015625,21.9550781 L31.1933594,21.9550781 L31.1933594,18.0791016 L30.6015625,18.0791016 L29.6171875,18.2958984 L29.6171875,18.8349609 L30.6074219,18.6123047 L30.6074219,21.9550781 L29.6875,21.9550781 L29.6875,22.453125 Z M34.3134766,22.5380859 C34.7792969,22.5380859 35.1337891,22.3476562 35.3740234,21.9638672 C35.6083984,21.5888672 35.7314453,21.0351562 35.7314453,20.2705078 C35.7314453,19.5058594 35.6083984,18.9492188 35.3740234,18.5742188 C35.1308594,18.1845703 34.7734375,18 34.3134766,18 C33.8447266,18 33.4931641,18.1904297 33.2558594,18.5742188 C33.0185547,18.9580078 32.8984375,19.5234375 32.8984375,20.2705078 C32.8984375,21.0146484 33.0185547,21.5800781 33.2558594,21.9638672 C33.4931641,22.3476562 33.8447266,22.5380859 34.3134766,22.5380859 L34.3134766,22.5380859 Z M34.3134766,22.0693359 C34.0439453,22.0693359 33.8388672,21.9287109 33.6982422,21.6240234 C33.5605469,21.3310547 33.4931641,20.8798828 33.4931641,20.2705078 C33.4931641,19.640625 33.5605469,19.2070312 33.6982422,18.9140625 C33.8330078,18.6181641 34.0380859,18.46875 34.3134766,18.46875 C34.6035156,18.46875 34.8027344,18.6240234 34.9345703,18.9169922 C35.0693359,19.2099609 35.1367188,19.6611328 35.1367188,20.2705078 C35.1367188,20.8769531 35.0693359,21.328125 34.9345703,21.6240234 C34.8027344,21.9140625 34.5976562,22.0693359 34.3134766,22.0693359 L34.3134766,22.0693359 Z M34.3193359,21.2929688 C34.421875,21.2929688 34.5097656,21.1552734 34.5595703,20.8652344 C34.5976562,20.625 34.609375,20.3583984 34.609375,20.2792969 C34.609375,20.1445312 34.5830078,19.8632812 34.5449219,19.6699219 C34.4892578,19.3974609 34.4160156,19.2421875 34.3076172,19.2421875 C34.2109375,19.2421875 34.1347656,19.3828125 34.0791016,19.6611328 C34.0322266,19.8779297 34.0205078,20.1621094 34.0205078,20.2558594 C34.0205078,20.3876953 34.0498047,20.6894531 34.0878906,20.8710938 C34.1347656,21.0996094 34.1962891,21.2929688 34.3193359,21.2929688 L34.3193359,21.2929688 Z M37.9257812,22.5380859 C38.3916016,22.5380859 38.7460938,22.3476562 38.9863281,21.9638672 C39.2207031,21.5888672 39.34375,21.0351562 39.34375,20.2705078 C39.34375,19.5058594 39.2207031,18.9492188 38.9863281,18.5742188 C38.7431641,18.1845703 38.3857422,18 37.9257812,18 C37.4570312,18 37.1054688,18.1904297 36.8681641,18.5742188 C36.6308594,18.9580078 36.5107422,19.5234375 36.5107422,20.2705078 C36.5107422,21.0146484 36.6308594,21.5800781 36.8681641,21.9638672 C37.1054688,22.3476562 37.4570312,22.5380859 37.9257812,22.5380859 L37.9257812,22.5380859 Z M37.9257812,22.0693359 C37.65625,22.0693359 37.4511719,21.9287109 37.3105469,21.6240234 C37.1728516,21.3310547 37.1054688,20.8798828 37.1054688,20.2705078 C37.1054688,19.640625 37.1728516,19.2070312 37.3105469,18.9140625 C37.4453125,18.6181641 37.6503906,18.46875 37.9257812,18.46875 C38.2158203,18.46875 38.4150391,18.6240234 38.546875,18.9169922 C38.6816406,19.2099609 38.7490234,19.6611328 38.7490234,20.2705078 C38.7490234,20.8769531 38.6816406,21.328125 38.546875,21.6240234 C38.4150391,21.9140625 38.2099609,22.0693359 37.9257812,22.0693359 L37.9257812,22.0693359 Z M37.9316406,21.2929688 C38.0341797,21.2929688 38.1220703,21.1552734 38.171875,20.8652344 C38.2099609,20.625 38.2216797,20.3583984 38.2216797,20.2792969 C38.2216797,20.1445312 38.1953125,19.8632812 38.1572266,19.6699219 C38.1015625,19.3974609 38.0283203,19.2421875 37.9199219,19.2421875 C37.8232422,19.2421875 37.7470703,19.3828125 37.6914062,19.6611328 C37.6445312,19.8779297 37.6328125,20.1621094 37.6328125,20.2558594 C37.6328125,20.3876953 37.6621094,20.6894531 37.7001953,20.8710938 C37.7470703,21.0996094 37.8085938,21.2929688 37.9316406,21.2929688 L37.9316406,21.2929688 Z M41.5380859,22.5380859 C42.0039062,22.5380859 42.3583984,22.3476562 42.5986328,21.9638672 C42.8330078,21.5888672 42.9560547,21.0351562 42.9560547,20.2705078 C42.9560547,19.5058594 42.8330078,18.9492188 42.5986328,18.5742188 C42.3554688,18.1845703 41.9980469,18 41.5380859,18 C41.0693359,18 40.7177734,18.1904297 40.4804688,18.5742188 C40.2431641,18.9580078 40.1230469,19.5234375 40.1230469,20.2705078 C40.1230469,21.0146484 40.2431641,21.5800781 40.4804688,21.9638672 C40.7177734,22.3476562 41.0693359,22.5380859 41.5380859,22.5380859 L41.5380859,22.5380859 Z M41.5380859,22.0693359 C41.2685547,22.0693359 41.0634766,21.9287109 40.9228516,21.6240234 C40.7851562,21.3310547 40.7177734,20.8798828 40.7177734,20.2705078 C40.7177734,19.640625 40.7851562,19.2070312 40.9228516,18.9140625 C41.0576172,18.6181641 41.2626953,18.46875 41.5380859,18.46875 C41.828125,18.46875 42.0273438,18.6240234 42.1591797,18.9169922 C42.2939453,19.2099609 42.3613281,19.6611328 42.3613281,20.2705078 C42.3613281,20.8769531 42.2939453,21.328125 42.1591797,21.6240234 C42.0273438,21.9140625 41.8222656,22.0693359 41.5380859,22.0693359 L41.5380859,22.0693359 Z M41.5439453,21.2929688 C41.6464844,21.2929688 41.734375,21.1552734 41.7841797,20.8652344 C41.8222656,20.625 41.8339844,20.3583984 41.8339844,20.2792969 C41.8339844,20.1445312 41.8076172,19.8632812 41.7695312,19.6699219 C41.7138672,19.3974609 41.640625,19.2421875 41.5322266,19.2421875 C41.4355469,19.2421875 41.359375,19.3828125 41.3037109,19.6611328 C41.2568359,19.8779297 41.2451172,20.1621094 41.2451172,20.2558594 C41.2451172,20.3876953 41.2744141,20.6894531 41.3125,20.8710938 C41.359375,21.0996094 41.4208984,21.2929688 41.5439453,21.2929688 L41.5439453,21.2929688 Z M5.41503906,29.5380859 C5.88085938,29.5380859 6.23535156,29.3476562 6.47558594,28.9638672 C6.70996094,28.5888672 6.83300781,28.0351562 6.83300781,27.2705078 C6.83300781,26.5058594 6.70996094,25.9492188 6.47558594,25.5742188 C6.23242188,25.1845703 5.875,25 5.41503906,25 C4.94628906,25 4.59472656,25.1904297 4.35742188,25.5742188 C4.12011719,25.9580078 4,26.5234375 4,27.2705078 C4,28.0146484 4.12011719,28.5800781 4.35742188,28.9638672 C4.59472656,29.3476562 4.94628906,29.5380859 5.41503906,29.5380859 L5.41503906,29.5380859 Z M5.41503906,29.0693359 C5.14550781,29.0693359 4.94042969,28.9287109 4.79980469,28.6240234 C4.66210938,28.3310547 4.59472656,27.8798828 4.59472656,27.2705078 C4.59472656,26.640625 4.66210938,26.2070312 4.79980469,25.9140625 C4.93457031,25.6181641 5.13964844,25.46875 5.41503906,25.46875 C5.70507812,25.46875 5.90429688,25.6240234 6.03613281,25.9169922 C6.17089844,26.2099609 6.23828125,26.6611328 6.23828125,27.2705078 C6.23828125,27.8769531 6.17089844,28.328125 6.03613281,28.6240234 C5.90429688,28.9140625 5.69921875,29.0693359 5.41503906,29.0693359 L5.41503906,29.0693359 Z M5.42089844,28.2929688 C5.5234375,28.2929688 5.61132812,28.1552734 5.66113281,27.8652344 C5.69921875,27.625 5.7109375,27.3583984 5.7109375,27.2792969 C5.7109375,27.1445312 5.68457031,26.8632812 5.64648438,26.6699219 C5.59082031,26.3974609 5.51757812,26.2421875 5.40917969,26.2421875 C5.3125,26.2421875 5.23632812,26.3828125 5.18066406,26.6611328 C5.13378906,26.8779297 5.12207031,27.1621094 5.12207031,27.2558594 C5.12207031,27.3876953 5.15136719,27.6894531 5.18945312,27.8710938 C5.23632812,28.0996094 5.29785156,28.2929688 5.42089844,28.2929688 L5.42089844,28.2929688 Z M8.01367188,29.453125 L10.4277344,29.453125 L10.4277344,28.9550781 L9.51953125,28.9550781 L9.51953125,25.0791016 L8.92773438,25.0791016 L7.94335938,25.2958984 L7.94335938,25.8349609 L8.93359375,25.6123047 L8.93359375,28.9550781 L8.01367188,28.9550781 L8.01367188,29.453125 Z M12.6396484,29.5380859 C13.1054688,29.5380859 13.4599609,29.3476562 13.7001953,28.9638672 C13.9345703,28.5888672 14.0576172,28.0351562 14.0576172,27.2705078 C14.0576172,26.5058594 13.9345703,25.9492188 13.7001953,25.5742188 C13.4570312,25.1845703 13.0996094,25 12.6396484,25 C12.1708984,25 11.8193359,25.1904297 11.5820312,25.5742188 C11.3447266,25.9580078 11.2246094,26.5234375 11.2246094,27.2705078 C11.2246094,28.0146484 11.3447266,28.5800781 11.5820312,28.9638672 C11.8193359,29.3476562 12.1708984,29.5380859 12.6396484,29.5380859 L12.6396484,29.5380859 Z M12.6396484,29.0693359 C12.3701172,29.0693359 12.1650391,28.9287109 12.0244141,28.6240234 C11.8867188,28.3310547 11.8193359,27.8798828 11.8193359,27.2705078 C11.8193359,26.640625 11.8867188,26.2070312 12.0244141,25.9140625 C12.1591797,25.6181641 12.3642578,25.46875 12.6396484,25.46875 C12.9296875,25.46875 13.1289062,25.6240234 13.2607422,25.9169922 C13.3955078,26.2099609 13.4628906,26.6611328 13.4628906,27.2705078 C13.4628906,27.8769531 13.3955078,28.328125 13.2607422,28.6240234 C13.1289062,28.9140625 12.9238281,29.0693359 12.6396484,29.0693359 L12.6396484,29.0693359 Z M12.6455078,28.2929688 C12.7480469,28.2929688 12.8359375,28.1552734 12.8857422,27.8652344 C12.9238281,27.625 12.9355469,27.3583984 12.9355469,27.2792969 C12.9355469,27.1445312 12.9091797,26.8632812 12.8710938,26.6699219 C12.8154297,26.3974609 12.7421875,26.2421875 12.6337891,26.2421875 C12.5371094,26.2421875 12.4609375,26.3828125 12.4052734,26.6611328 C12.3583984,26.8779297 12.3466797,27.1621094 12.3466797,27.2558594 C12.3466797,27.3876953 12.3759766,27.6894531 12.4140625,27.8710938 C12.4609375,28.0996094 12.5224609,28.2929688 12.6455078,28.2929688 L12.6455078,28.2929688 Z M16.2519531,29.5380859 C16.7177734,29.5380859 17.0722656,29.3476562 17.3125,28.9638672 C17.546875,28.5888672 17.6699219,28.0351562 17.6699219,27.2705078 C17.6699219,26.5058594 17.546875,25.9492188 17.3125,25.5742188 C17.0693359,25.1845703 16.7119141,25 16.2519531,25 C15.7832031,25 15.4316406,25.1904297 15.1943359,25.5742188 C14.9570312,25.9580078 14.8369141,26.5234375 14.8369141,27.2705078 C14.8369141,28.0146484 14.9570312,28.5800781 15.1943359,28.9638672 C15.4316406,29.3476562 15.7832031,29.5380859 16.2519531,29.5380859 L16.2519531,29.5380859 Z M16.2519531,29.0693359 C15.9824219,29.0693359 15.7773438,28.9287109 15.6367188,28.6240234 C15.4990234,28.3310547 15.4316406,27.8798828 15.4316406,27.2705078 C15.4316406,26.640625 15.4990234,26.2070312 15.6367188,25.9140625 C15.7714844,25.6181641 15.9765625,25.46875 16.2519531,25.46875 C16.5419922,25.46875 16.7412109,25.6240234 16.8730469,25.9169922 C17.0078125,26.2099609 17.0751953,26.6611328 17.0751953,27.2705078 C17.0751953,27.8769531 17.0078125,28.328125 16.8730469,28.6240234 C16.7412109,28.9140625 16.5361328,29.0693359 16.2519531,29.0693359 L16.2519531,29.0693359 Z M16.2578125,28.2929688 C16.3603516,28.2929688 16.4482422,28.1552734 16.4980469,27.8652344 C16.5361328,27.625 16.5478516,27.3583984 16.5478516,27.2792969 C16.5478516,27.1445312 16.5214844,26.8632812 16.4833984,26.6699219 C16.4277344,26.3974609 16.3544922,26.2421875 16.2460938,26.2421875 C16.1494141,26.2421875 16.0732422,26.3828125 16.0175781,26.6611328 C15.9707031,26.8779297 15.9589844,27.1621094 15.9589844,27.2558594 C15.9589844,27.3876953 15.9882812,27.6894531 16.0263672,27.8710938 C16.0732422,28.0996094 16.1347656,28.2929688 16.2578125,28.2929688 L16.2578125,28.2929688 Z M19.8642578,29.5380859 C20.3300781,29.5380859 20.6845703,29.3476562 20.9248047,28.9638672 C21.1591797,28.5888672 21.2822266,28.0351562 21.2822266,27.2705078 C21.2822266,26.5058594 21.1591797,25.9492188 20.9248047,25.5742188 C20.6816406,25.1845703 20.3242188,25 19.8642578,25 C19.3955078,25 19.0439453,25.1904297 18.8066406,25.5742188 C18.5693359,25.9580078 18.4492188,26.5234375 18.4492188,27.2705078 C18.4492188,28.0146484 18.5693359,28.5800781 18.8066406,28.9638672 C19.0439453,29.3476562 19.3955078,29.5380859 19.8642578,29.5380859 L19.8642578,29.5380859 Z M19.8642578,29.0693359 C19.5947266,29.0693359 19.3896484,28.9287109 19.2490234,28.6240234 C19.1113281,28.3310547 19.0439453,27.8798828 19.0439453,27.2705078 C19.0439453,26.640625 19.1113281,26.2070312 19.2490234,25.9140625 C19.3837891,25.6181641 19.5888672,25.46875 19.8642578,25.46875 C20.1542969,25.46875 20.3535156,25.6240234 20.4853516,25.9169922 C20.6201172,26.2099609 20.6875,26.6611328 20.6875,27.2705078 C20.6875,27.8769531 20.6201172,28.328125 20.4853516,28.6240234 C20.3535156,28.9140625 20.1484375,29.0693359 19.8642578,29.0693359 L19.8642578,29.0693359 Z M19.8701172,28.2929688 C19.9726562,28.2929688 20.0605469,28.1552734 20.1103516,27.8652344 C20.1484375,27.625 20.1601562,27.3583984 20.1601562,27.2792969 C20.1601562,27.1445312 20.1337891,26.8632812 20.0957031,26.6699219 C20.0400391,26.3974609 19.9667969,26.2421875 19.8583984,26.2421875 C19.7617188,26.2421875 19.6855469,26.3828125 19.6298828,26.6611328 C19.5830078,26.8779297 19.5712891,27.1621094 19.5712891,27.2558594 C19.5712891,27.3876953 19.6005859,27.6894531 19.6386719,27.8710938 C19.6855469,28.0996094 19.7470703,28.2929688 19.8701172,28.2929688 L19.8701172,28.2929688 Z M22.4628906,29.453125 L24.8769531,29.453125 L24.8769531,28.9550781 L23.96875,28.9550781 L23.96875,25.0791016 L23.3769531,25.0791016 L22.3925781,25.2958984 L22.3925781,25.8349609 L23.3828125,25.6123047 L23.3828125,28.9550781 L22.4628906,28.9550781 L22.4628906,29.453125 Z M27.0888672,29.5380859 C27.5546875,29.5380859 27.9091797,29.3476562 28.1494141,28.9638672 C28.3837891,28.5888672 28.5068359,28.0351562 28.5068359,27.2705078 C28.5068359,26.5058594 28.3837891,25.9492188 28.1494141,25.5742188 C27.90625,25.1845703 27.5488281,25 27.0888672,25 C26.6201172,25 26.2685547,25.1904297 26.03125,25.5742188 C25.7939453,25.9580078 25.6738281,26.5234375 25.6738281,27.2705078 C25.6738281,28.0146484 25.7939453,28.5800781 26.03125,28.9638672 C26.2685547,29.3476562 26.6201172,29.5380859 27.0888672,29.5380859 L27.0888672,29.5380859 Z M27.0888672,29.0693359 C26.8193359,29.0693359 26.6142578,28.9287109 26.4736328,28.6240234 C26.3359375,28.3310547 26.2685547,27.8798828 26.2685547,27.2705078 C26.2685547,26.640625 26.3359375,26.2070312 26.4736328,25.9140625 C26.6083984,25.6181641 26.8134766,25.46875 27.0888672,25.46875 C27.3789062,25.46875 27.578125,25.6240234 27.7099609,25.9169922 C27.8447266,26.2099609 27.9121094,26.6611328 27.9121094,27.2705078 C27.9121094,27.8769531 27.8447266,28.328125 27.7099609,28.6240234 C27.578125,28.9140625 27.3730469,29.0693359 27.0888672,29.0693359 L27.0888672,29.0693359 Z M27.0947266,28.2929688 C27.1972656,28.2929688 27.2851562,28.1552734 27.3349609,27.8652344 C27.3730469,27.625 27.3847656,27.3583984 27.3847656,27.2792969 C27.3847656,27.1445312 27.3583984,26.8632812 27.3203125,26.6699219 C27.2646484,26.3974609 27.1914062,26.2421875 27.0830078,26.2421875 C26.9863281,26.2421875 26.9101562,26.3828125 26.8544922,26.6611328 C26.8076172,26.8779297 26.7958984,27.1621094 26.7958984,27.2558594 C26.7958984,27.3876953 26.8251953,27.6894531 26.8632812,27.8710938 C26.9101562,28.0996094 26.9716797,28.2929688 27.0947266,28.2929688 L27.0947266,28.2929688 Z M29.6875,29.453125 L32.1015625,29.453125 L32.1015625,28.9550781 L31.1933594,28.9550781 L31.1933594,25.0791016 L30.6015625,25.0791016 L29.6171875,25.2958984 L29.6171875,25.8349609 L30.6074219,25.6123047 L30.6074219,28.9550781 L29.6875,28.9550781 L29.6875,29.453125 Z M34.3134766,29.5380859 C34.7792969,29.5380859 35.1337891,29.3476562 35.3740234,28.9638672 C35.6083984,28.5888672 35.7314453,28.0351562 35.7314453,27.2705078 C35.7314453,26.5058594 35.6083984,25.9492188 35.3740234,25.5742188 C35.1308594,25.1845703 34.7734375,25 34.3134766,25 C33.8447266,25 33.4931641,25.1904297 33.2558594,25.5742188 C33.0185547,25.9580078 32.8984375,26.5234375 32.8984375,27.2705078 C32.8984375,28.0146484 33.0185547,28.5800781 33.2558594,28.9638672 C33.4931641,29.3476562 33.8447266,29.5380859 34.3134766,29.5380859 L34.3134766,29.5380859 Z M34.3134766,29.0693359 C34.0439453,29.0693359 33.8388672,28.9287109 33.6982422,28.6240234 C33.5605469,28.3310547 33.4931641,27.8798828 33.4931641,27.2705078 C33.4931641,26.640625 33.5605469,26.2070312 33.6982422,25.9140625 C33.8330078,25.6181641 34.0380859,25.46875 34.3134766,25.46875 C34.6035156,25.46875 34.8027344,25.6240234 34.9345703,25.9169922 C35.0693359,26.2099609 35.1367188,26.6611328 35.1367188,27.2705078 C35.1367188,27.8769531 35.0693359,28.328125 34.9345703,28.6240234 C34.8027344,28.9140625 34.5976562,29.0693359 34.3134766,29.0693359 L34.3134766,29.0693359 Z M34.3193359,28.2929688 C34.421875,28.2929688 34.5097656,28.1552734 34.5595703,27.8652344 C34.5976562,27.625 34.609375,27.3583984 34.609375,27.2792969 C34.609375,27.1445312 34.5830078,26.8632812 34.5449219,26.6699219 C34.4892578,26.3974609 34.4160156,26.2421875 34.3076172,26.2421875 C34.2109375,26.2421875 34.1347656,26.3828125 34.0791016,26.6611328 C34.0322266,26.8779297 34.0205078,27.1621094 34.0205078,27.2558594 C34.0205078,27.3876953 34.0498047,27.6894531 34.0878906,27.8710938 C34.1347656,28.0996094 34.1962891,28.2929688 34.3193359,28.2929688 L34.3193359,28.2929688 Z M37.9257812,29.5380859 C38.3916016,29.5380859 38.7460938,29.3476562 38.9863281,28.9638672 C39.2207031,28.5888672 39.34375,28.0351562 39.34375,27.2705078 C39.34375,26.5058594 39.2207031,25.9492188 38.9863281,25.5742188 C38.7431641,25.1845703 38.3857422,25 37.9257812,25 C37.4570312,25 37.1054688,25.1904297 36.8681641,25.5742188 C36.6308594,25.9580078 36.5107422,26.5234375 36.5107422,27.2705078 C36.5107422,28.0146484 36.6308594,28.5800781 36.8681641,28.9638672 C37.1054688,29.3476562 37.4570312,29.5380859 37.9257812,29.5380859 L37.9257812,29.5380859 Z M37.9257812,29.0693359 C37.65625,29.0693359 37.4511719,28.9287109 37.3105469,28.6240234 C37.1728516,28.3310547 37.1054688,27.8798828 37.1054688,27.2705078 C37.1054688,26.640625 37.1728516,26.2070312 37.3105469,25.9140625 C37.4453125,25.6181641 37.6503906,25.46875 37.9257812,25.46875 C38.2158203,25.46875 38.4150391,25.6240234 38.546875,25.9169922 C38.6816406,26.2099609 38.7490234,26.6611328 38.7490234,27.2705078 C38.7490234,27.8769531 38.6816406,28.328125 38.546875,28.6240234 C38.4150391,28.9140625 38.2099609,29.0693359 37.9257812,29.0693359 L37.9257812,29.0693359 Z M37.9316406,28.2929688 C38.0341797,28.2929688 38.1220703,28.1552734 38.171875,27.8652344 C38.2099609,27.625 38.2216797,27.3583984 38.2216797,27.2792969 C38.2216797,27.1445312 38.1953125,26.8632812 38.1572266,26.6699219 C38.1015625,26.3974609 38.0283203,26.2421875 37.9199219,26.2421875 C37.8232422,26.2421875 37.7470703,26.3828125 37.6914062,26.6611328 C37.6445312,26.8779297 37.6328125,27.1621094 37.6328125,27.2558594 C37.6328125,27.3876953 37.6621094,27.6894531 37.7001953,27.8710938 C37.7470703,28.0996094 37.8085938,28.2929688 37.9316406,28.2929688 L37.9316406,28.2929688 Z M40.5244141,29.453125 L42.9384766,29.453125 L42.9384766,28.9550781 L42.0302734,28.9550781 L42.0302734,25.0791016 L41.4384766,25.0791016 L40.4541016,25.2958984 L40.4541016,25.8349609 L41.4443359,25.6123047 L41.4443359,28.9550781 L40.5244141,28.9550781 L40.5244141,29.453125 Z M5.41503906,36.5380859 C5.88085938,36.5380859 6.23535156,36.3476562 6.47558594,35.9638672 C6.70996094,35.5888672 6.83300781,35.0351562 6.83300781,34.2705078 C6.83300781,33.5058594 6.70996094,32.9492188 6.47558594,32.5742188 C6.23242188,32.1845703 5.875,32 5.41503906,32 C4.94628906,32 4.59472656,32.1904297 4.35742188,32.5742188 C4.12011719,32.9580078 4,33.5234375 4,34.2705078 C4,35.0146484 4.12011719,35.5800781 4.35742188,35.9638672 C4.59472656,36.3476562 4.94628906,36.5380859 5.41503906,36.5380859 L5.41503906,36.5380859 Z M5.41503906,36.0693359 C5.14550781,36.0693359 4.94042969,35.9287109 4.79980469,35.6240234 C4.66210938,35.3310547 4.59472656,34.8798828 4.59472656,34.2705078 C4.59472656,33.640625 4.66210938,33.2070312 4.79980469,32.9140625 C4.93457031,32.6181641 5.13964844,32.46875 5.41503906,32.46875 C5.70507812,32.46875 5.90429688,32.6240234 6.03613281,32.9169922 C6.17089844,33.2099609 6.23828125,33.6611328 6.23828125,34.2705078 C6.23828125,34.8769531 6.17089844,35.328125 6.03613281,35.6240234 C5.90429688,35.9140625 5.69921875,36.0693359 5.41503906,36.0693359 L5.41503906,36.0693359 Z M5.42089844,35.2929688 C5.5234375,35.2929688 5.61132812,35.1552734 5.66113281,34.8652344 C5.69921875,34.625 5.7109375,34.3583984 5.7109375,34.2792969 C5.7109375,34.1445312 5.68457031,33.8632812 5.64648438,33.6699219 C5.59082031,33.3974609 5.51757812,33.2421875 5.40917969,33.2421875 C5.3125,33.2421875 5.23632812,33.3828125 5.18066406,33.6611328 C5.13378906,33.8779297 5.12207031,34.1621094 5.12207031,34.2558594 C5.12207031,34.3876953 5.15136719,34.6894531 5.18945312,34.8710938 C5.23632812,35.0996094 5.29785156,35.2929688 5.42089844,35.2929688 L5.42089844,35.2929688 Z M8.01367188,36.453125 L10.4277344,36.453125 L10.4277344,35.9550781 L9.51953125,35.9550781 L9.51953125,32.0791016 L8.92773438,32.0791016 L7.94335938,32.2958984 L7.94335938,32.8349609 L8.93359375,32.6123047 L8.93359375,35.9550781 L8.01367188,35.9550781 L8.01367188,36.453125 Z M12.6396484,36.5380859 C13.1054688,36.5380859 13.4599609,36.3476562 13.7001953,35.9638672 C13.9345703,35.5888672 14.0576172,35.0351562 14.0576172,34.2705078 C14.0576172,33.5058594 13.9345703,32.9492188 13.7001953,32.5742188 C13.4570312,32.1845703 13.0996094,32 12.6396484,32 C12.1708984,32 11.8193359,32.1904297 11.5820312,32.5742188 C11.3447266,32.9580078 11.2246094,33.5234375 11.2246094,34.2705078 C11.2246094,35.0146484 11.3447266,35.5800781 11.5820312,35.9638672 C11.8193359,36.3476562 12.1708984,36.5380859 12.6396484,36.5380859 L12.6396484,36.5380859 Z M12.6396484,36.0693359 C12.3701172,36.0693359 12.1650391,35.9287109 12.0244141,35.6240234 C11.8867188,35.3310547 11.8193359,34.8798828 11.8193359,34.2705078 C11.8193359,33.640625 11.8867188,33.2070312 12.0244141,32.9140625 C12.1591797,32.6181641 12.3642578,32.46875 12.6396484,32.46875 C12.9296875,32.46875 13.1289062,32.6240234 13.2607422,32.9169922 C13.3955078,33.2099609 13.4628906,33.6611328 13.4628906,34.2705078 C13.4628906,34.8769531 13.3955078,35.328125 13.2607422,35.6240234 C13.1289062,35.9140625 12.9238281,36.0693359 12.6396484,36.0693359 L12.6396484,36.0693359 Z M12.6455078,35.2929688 C12.7480469,35.2929688 12.8359375,35.1552734 12.8857422,34.8652344 C12.9238281,34.625 12.9355469,34.3583984 12.9355469,34.2792969 C12.9355469,34.1445312 12.9091797,33.8632812 12.8710938,33.6699219 C12.8154297,33.3974609 12.7421875,33.2421875 12.6337891,33.2421875 C12.5371094,33.2421875 12.4609375,33.3828125 12.4052734,33.6611328 C12.3583984,33.8779297 12.3466797,34.1621094 12.3466797,34.2558594 C12.3466797,34.3876953 12.3759766,34.6894531 12.4140625,34.8710938 C12.4609375,35.0996094 12.5224609,35.2929688 12.6455078,35.2929688 L12.6455078,35.2929688 Z M15.2382812,36.453125 L17.6523438,36.453125 L17.6523438,35.9550781 L16.7441406,35.9550781 L16.7441406,32.0791016 L16.1523438,32.0791016 L15.1679687,32.2958984 L15.1679687,32.8349609 L16.1582031,32.6123047 L16.1582031,35.9550781 L15.2382812,35.9550781 L15.2382812,36.453125 Z M18.8505859,36.453125 L21.2646484,36.453125 L21.2646484,35.9550781 L20.3564453,35.9550781 L20.3564453,32.0791016 L19.7646484,32.0791016 L18.7802734,32.2958984 L18.7802734,32.8349609 L19.7705078,32.6123047 L19.7705078,35.9550781 L18.8505859,35.9550781 L18.8505859,36.453125 Z M22.4628906,36.453125 L24.8769531,36.453125 L24.8769531,35.9550781 L23.96875,35.9550781 L23.96875,32.0791016 L23.3769531,32.0791016 L22.3925781,32.2958984 L22.3925781,32.8349609 L23.3828125,32.6123047 L23.3828125,35.9550781 L22.4628906,35.9550781 L22.4628906,36.453125 Z M27.0888672,36.5380859 C27.5546875,36.5380859 27.9091797,36.3476562 28.1494141,35.9638672 C28.3837891,35.5888672 28.5068359,35.0351562 28.5068359,34.2705078 C28.5068359,33.5058594 28.3837891,32.9492188 28.1494141,32.5742188 C27.90625,32.1845703 27.5488281,32 27.0888672,32 C26.6201172,32 26.2685547,32.1904297 26.03125,32.5742188 C25.7939453,32.9580078 25.6738281,33.5234375 25.6738281,34.2705078 C25.6738281,35.0146484 25.7939453,35.5800781 26.03125,35.9638672 C26.2685547,36.3476562 26.6201172,36.5380859 27.0888672,36.5380859 L27.0888672,36.5380859 Z M27.0888672,36.0693359 C26.8193359,36.0693359 26.6142578,35.9287109 26.4736328,35.6240234 C26.3359375,35.3310547 26.2685547,34.8798828 26.2685547,34.2705078 C26.2685547,33.640625 26.3359375,33.2070312 26.4736328,32.9140625 C26.6083984,32.6181641 26.8134766,32.46875 27.0888672,32.46875 C27.3789062,32.46875 27.578125,32.6240234 27.7099609,32.9169922 C27.8447266,33.2099609 27.9121094,33.6611328 27.9121094,34.2705078 C27.9121094,34.8769531 27.8447266,35.328125 27.7099609,35.6240234 C27.578125,35.9140625 27.3730469,36.0693359 27.0888672,36.0693359 L27.0888672,36.0693359 Z M27.0947266,35.2929688 C27.1972656,35.2929688 27.2851562,35.1552734 27.3349609,34.8652344 C27.3730469,34.625 27.3847656,34.3583984 27.3847656,34.2792969 C27.3847656,34.1445312 27.3583984,33.8632812 27.3203125,33.6699219 C27.2646484,33.3974609 27.1914062,33.2421875 27.0830078,33.2421875 C26.9863281,33.2421875 26.9101562,33.3828125 26.8544922,33.6611328 C26.8076172,33.8779297 26.7958984,34.1621094 26.7958984,34.2558594 C26.7958984,34.3876953 26.8251953,34.6894531 26.8632812,34.8710938 C26.9101562,35.0996094 26.9716797,35.2929688 27.0947266,35.2929688 L27.0947266,35.2929688 Z M29.6875,36.453125 L32.1015625,36.453125 L32.1015625,35.9550781 L31.1933594,35.9550781 L31.1933594,32.0791016 L30.6015625,32.0791016 L29.6171875,32.2958984 L29.6171875,32.8349609 L30.6074219,32.6123047 L30.6074219,35.9550781 L29.6875,35.9550781 L29.6875,36.453125 Z M34.3134766,36.5380859 C34.7792969,36.5380859 35.1337891,36.3476562 35.3740234,35.9638672 C35.6083984,35.5888672 35.7314453,35.0351562 35.7314453,34.2705078 C35.7314453,33.5058594 35.6083984,32.9492188 35.3740234,32.5742188 C35.1308594,32.1845703 34.7734375,32 34.3134766,32 C33.8447266,32 33.4931641,32.1904297 33.2558594,32.5742188 C33.0185547,32.9580078 32.8984375,33.5234375 32.8984375,34.2705078 C32.8984375,35.0146484 33.0185547,35.5800781 33.2558594,35.9638672 C33.4931641,36.3476562 33.8447266,36.5380859 34.3134766,36.5380859 L34.3134766,36.5380859 Z M34.3134766,36.0693359 C34.0439453,36.0693359 33.8388672,35.9287109 33.6982422,35.6240234 C33.5605469,35.3310547 33.4931641,34.8798828 33.4931641,34.2705078 C33.4931641,33.640625 33.5605469,33.2070312 33.6982422,32.9140625 C33.8330078,32.6181641 34.0380859,32.46875 34.3134766,32.46875 C34.6035156,32.46875 34.8027344,32.6240234 34.9345703,32.9169922 C35.0693359,33.2099609 35.1367188,33.6611328 35.1367188,34.2705078 C35.1367188,34.8769531 35.0693359,35.328125 34.9345703,35.6240234 C34.8027344,35.9140625 34.5976562,36.0693359 34.3134766,36.0693359 L34.3134766,36.0693359 Z M34.3193359,35.2929688 C34.421875,35.2929688 34.5097656,35.1552734 34.5595703,34.8652344 C34.5976562,34.625 34.609375,34.3583984 34.609375,34.2792969 C34.609375,34.1445312 34.5830078,33.8632812 34.5449219,33.6699219 C34.4892578,33.3974609 34.4160156,33.2421875 34.3076172,33.2421875 C34.2109375,33.2421875 34.1347656,33.3828125 34.0791016,33.6611328 C34.0322266,33.8779297 34.0205078,34.1621094 34.0205078,34.2558594 C34.0205078,34.3876953 34.0498047,34.6894531 34.0878906,34.8710938 C34.1347656,35.0996094 34.1962891,35.2929688 34.3193359,35.2929688 L34.3193359,35.2929688 Z M36.9121094,36.453125 L39.3261719,36.453125 L39.3261719,35.9550781 L38.4179688,35.9550781 L38.4179688,32.0791016 L37.8261719,32.0791016 L36.8417969,32.2958984 L36.8417969,32.8349609 L37.8320312,32.6123047 L37.8320312,35.9550781 L36.9121094,35.9550781 L36.9121094,36.453125 Z M41.5380859,36.5380859 C42.0039062,36.5380859 42.3583984,36.3476562 42.5986328,35.9638672 C42.8330078,35.5888672 42.9560547,35.0351562 42.9560547,34.2705078 C42.9560547,33.5058594 42.8330078,32.9492188 42.5986328,32.5742188 C42.3554688,32.1845703 41.9980469,32 41.5380859,32 C41.0693359,32 40.7177734,32.1904297 40.4804688,32.5742188 C40.2431641,32.9580078 40.1230469,33.5234375 40.1230469,34.2705078 C40.1230469,35.0146484 40.2431641,35.5800781 40.4804688,35.9638672 C40.7177734,36.3476562 41.0693359,36.5380859 41.5380859,36.5380859 L41.5380859,36.5380859 Z M41.5380859,36.0693359 C41.2685547,36.0693359 41.0634766,35.9287109 40.9228516,35.6240234 C40.7851562,35.3310547 40.7177734,34.8798828 40.7177734,34.2705078 C40.7177734,33.640625 40.7851562,33.2070312 40.9228516,32.9140625 C41.0576172,32.6181641 41.2626953,32.46875 41.5380859,32.46875 C41.828125,32.46875 42.0273438,32.6240234 42.1591797,32.9169922 C42.2939453,33.2099609 42.3613281,33.6611328 42.3613281,34.2705078 C42.3613281,34.8769531 42.2939453,35.328125 42.1591797,35.6240234 C42.0273438,35.9140625 41.8222656,36.0693359 41.5380859,36.0693359 L41.5380859,36.0693359 Z M41.5439453,35.2929688 C41.6464844,35.2929688 41.734375,35.1552734 41.7841797,34.8652344 C41.8222656,34.625 41.8339844,34.3583984 41.8339844,34.2792969 C41.8339844,34.1445312 41.8076172,33.8632812 41.7695312,33.6699219 C41.7138672,33.3974609 41.640625,33.2421875 41.5322266,33.2421875 C41.4355469,33.2421875 41.359375,33.3828125 41.3037109,33.6611328 C41.2568359,33.8779297 41.2451172,34.1621094 41.2451172,34.2558594 C41.2451172,34.3876953 41.2744141,34.6894531 41.3125,34.8710938 C41.359375,35.0996094 41.4208984,35.2929688 41.5439453,35.2929688 L41.5439453,35.2929688 Z M5.41503906,43.5380859 C5.88085938,43.5380859 6.23535156,43.3476562 6.47558594,42.9638672 C6.70996094,42.5888672 6.83300781,42.0351562 6.83300781,41.2705078 C6.83300781,40.5058594 6.70996094,39.9492188 6.47558594,39.5742188 C6.23242188,39.1845703 5.875,39 5.41503906,39 C4.94628906,39 4.59472656,39.1904297 4.35742188,39.5742188 C4.12011719,39.9580078 4,40.5234375 4,41.2705078 C4,42.0146484 4.12011719,42.5800781 4.35742188,42.9638672 C4.59472656,43.3476562 4.94628906,43.5380859 5.41503906,43.5380859 L5.41503906,43.5380859 Z M5.41503906,43.0693359 C5.14550781,43.0693359 4.94042969,42.9287109 4.79980469,42.6240234 C4.66210938,42.3310547 4.59472656,41.8798828 4.59472656,41.2705078 C4.59472656,40.640625 4.66210938,40.2070312 4.79980469,39.9140625 C4.93457031,39.6181641 5.13964844,39.46875 5.41503906,39.46875 C5.70507812,39.46875 5.90429688,39.6240234 6.03613281,39.9169922 C6.17089844,40.2099609 6.23828125,40.6611328 6.23828125,41.2705078 C6.23828125,41.8769531 6.17089844,42.328125 6.03613281,42.6240234 C5.90429688,42.9140625 5.69921875,43.0693359 5.41503906,43.0693359 L5.41503906,43.0693359 Z M5.42089844,42.2929688 C5.5234375,42.2929688 5.61132812,42.1552734 5.66113281,41.8652344 C5.69921875,41.625 5.7109375,41.3583984 5.7109375,41.2792969 C5.7109375,41.1445312 5.68457031,40.8632812 5.64648438,40.6699219 C5.59082031,40.3974609 5.51757812,40.2421875 5.40917969,40.2421875 C5.3125,40.2421875 5.23632812,40.3828125 5.18066406,40.6611328 C5.13378906,40.8779297 5.12207031,41.1621094 5.12207031,41.2558594 C5.12207031,41.3876953 5.15136719,41.6894531 5.18945312,41.8710938 C5.23632812,42.0996094 5.29785156,42.2929688 5.42089844,42.2929688 L5.42089844,42.2929688 Z M8.01367188,43.453125 L10.4277344,43.453125 L10.4277344,42.9550781 L9.51953125,42.9550781 L9.51953125,39.0791016 L8.92773438,39.0791016 L7.94335938,39.2958984 L7.94335938,39.8349609 L8.93359375,39.6123047 L8.93359375,42.9550781 L8.01367188,42.9550781 L8.01367188,43.453125 Z M12.6396484,43.5380859 C13.1054688,43.5380859 13.4599609,43.3476562 13.7001953,42.9638672 C13.9345703,42.5888672 14.0576172,42.0351562 14.0576172,41.2705078 C14.0576172,40.5058594 13.9345703,39.9492188 13.7001953,39.5742188 C13.4570312,39.1845703 13.0996094,39 12.6396484,39 C12.1708984,39 11.8193359,39.1904297 11.5820312,39.5742188 C11.3447266,39.9580078 11.2246094,40.5234375 11.2246094,41.2705078 C11.2246094,42.0146484 11.3447266,42.5800781 11.5820312,42.9638672 C11.8193359,43.3476562 12.1708984,43.5380859 12.6396484,43.5380859 L12.6396484,43.5380859 Z M12.6396484,43.0693359 C12.3701172,43.0693359 12.1650391,42.9287109 12.0244141,42.6240234 C11.8867188,42.3310547 11.8193359,41.8798828 11.8193359,41.2705078 C11.8193359,40.640625 11.8867188,40.2070312 12.0244141,39.9140625 C12.1591797,39.6181641 12.3642578,39.46875 12.6396484,39.46875 C12.9296875,39.46875 13.1289062,39.6240234 13.2607422,39.9169922 C13.3955078,40.2099609 13.4628906,40.6611328 13.4628906,41.2705078 C13.4628906,41.8769531 13.3955078,42.328125 13.2607422,42.6240234 C13.1289062,42.9140625 12.9238281,43.0693359 12.6396484,43.0693359 L12.6396484,43.0693359 Z M12.6455078,42.2929688 C12.7480469,42.2929688 12.8359375,42.1552734 12.8857422,41.8652344 C12.9238281,41.625 12.9355469,41.3583984 12.9355469,41.2792969 C12.9355469,41.1445312 12.9091797,40.8632812 12.8710938,40.6699219 C12.8154297,40.3974609 12.7421875,40.2421875 12.6337891,40.2421875 C12.5371094,40.2421875 12.4609375,40.3828125 12.4052734,40.6611328 C12.3583984,40.8779297 12.3466797,41.1621094 12.3466797,41.2558594 C12.3466797,41.3876953 12.3759766,41.6894531 12.4140625,41.8710938 C12.4609375,42.0996094 12.5224609,42.2929688 12.6455078,42.2929688 L12.6455078,42.2929688 Z M15.2382812,43.453125 L17.6523438,43.453125 L17.6523438,42.9550781 L16.7441406,42.9550781 L16.7441406,39.0791016 L16.1523438,39.0791016 L15.1679687,39.2958984 L15.1679687,39.8349609 L16.1582031,39.6123047 L16.1582031,42.9550781 L15.2382812,42.9550781 L15.2382812,43.453125 Z M19.8642578,43.5380859 C20.3300781,43.5380859 20.6845703,43.3476562 20.9248047,42.9638672 C21.1591797,42.5888672 21.2822266,42.0351562 21.2822266,41.2705078 C21.2822266,40.5058594 21.1591797,39.9492188 20.9248047,39.5742188 C20.6816406,39.1845703 20.3242188,39 19.8642578,39 C19.3955078,39 19.0439453,39.1904297 18.8066406,39.5742188 C18.5693359,39.9580078 18.4492188,40.5234375 18.4492188,41.2705078 C18.4492188,42.0146484 18.5693359,42.5800781 18.8066406,42.9638672 C19.0439453,43.3476562 19.3955078,43.5380859 19.8642578,43.5380859 L19.8642578,43.5380859 Z M19.8642578,43.0693359 C19.5947266,43.0693359 19.3896484,42.9287109 19.2490234,42.6240234 C19.1113281,42.3310547 19.0439453,41.8798828 19.0439453,41.2705078 C19.0439453,40.640625 19.1113281,40.2070312 19.2490234,39.9140625 C19.3837891,39.6181641 19.5888672,39.46875 19.8642578,39.46875 C20.1542969,39.46875 20.3535156,39.6240234 20.4853516,39.9169922 C20.6201172,40.2099609 20.6875,40.6611328 20.6875,41.2705078 C20.6875,41.8769531 20.6201172,42.328125 20.4853516,42.6240234 C20.3535156,42.9140625 20.1484375,43.0693359 19.8642578,43.0693359 L19.8642578,43.0693359 Z M19.8701172,42.2929688 C19.9726562,42.2929688 20.0605469,42.1552734 20.1103516,41.8652344 C20.1484375,41.625 20.1601562,41.3583984 20.1601562,41.2792969 C20.1601562,41.1445312 20.1337891,40.8632812 20.0957031,40.6699219 C20.0400391,40.3974609 19.9667969,40.2421875 19.8583984,40.2421875 C19.7617188,40.2421875 19.6855469,40.3828125 19.6298828,40.6611328 C19.5830078,40.8779297 19.5712891,41.1621094 19.5712891,41.2558594 C19.5712891,41.3876953 19.6005859,41.6894531 19.6386719,41.8710938 C19.6855469,42.0996094 19.7470703,42.2929688 19.8701172,42.2929688 L19.8701172,42.2929688 Z M22.4628906,43.453125 L24.8769531,43.453125 L24.8769531,42.9550781 L23.96875,42.9550781 L23.96875,39.0791016 L23.3769531,39.0791016 L22.3925781,39.2958984 L22.3925781,39.8349609 L23.3828125,39.6123047 L23.3828125,42.9550781 L22.4628906,42.9550781 L22.4628906,43.453125 Z M27.0888672,43.5380859 C27.5546875,43.5380859 27.9091797,43.3476562 28.1494141,42.9638672 C28.3837891,42.5888672 28.5068359,42.0351562 28.5068359,41.2705078 C28.5068359,40.5058594 28.3837891,39.9492188 28.1494141,39.5742188 C27.90625,39.1845703 27.5488281,39 27.0888672,39 C26.6201172,39 26.2685547,39.1904297 26.03125,39.5742188 C25.7939453,39.9580078 25.6738281,40.5234375 25.6738281,41.2705078 C25.6738281,42.0146484 25.7939453,42.5800781 26.03125,42.9638672 C26.2685547,43.3476562 26.6201172,43.5380859 27.0888672,43.5380859 L27.0888672,43.5380859 Z M27.0888672,43.0693359 C26.8193359,43.0693359 26.6142578,42.9287109 26.4736328,42.6240234 C26.3359375,42.3310547 26.2685547,41.8798828 26.2685547,41.2705078 C26.2685547,40.640625 26.3359375,40.2070312 26.4736328,39.9140625 C26.6083984,39.6181641 26.8134766,39.46875 27.0888672,39.46875 C27.3789062,39.46875 27.578125,39.6240234 27.7099609,39.9169922 C27.8447266,40.2099609 27.9121094,40.6611328 27.9121094,41.2705078 C27.9121094,41.8769531 27.8447266,42.328125 27.7099609,42.6240234 C27.578125,42.9140625 27.3730469,43.0693359 27.0888672,43.0693359 L27.0888672,43.0693359 Z M27.0947266,42.2929688 C27.1972656,42.2929688 27.2851562,42.1552734 27.3349609,41.8652344 C27.3730469,41.625 27.3847656,41.3583984 27.3847656,41.2792969 C27.3847656,41.1445312 27.3583984,40.8632812 27.3203125,40.6699219 C27.2646484,40.3974609 27.1914062,40.2421875 27.0830078,40.2421875 C26.9863281,40.2421875 26.9101562,40.3828125 26.8544922,40.6611328 C26.8076172,40.8779297 26.7958984,41.1621094 26.7958984,41.2558594 C26.7958984,41.3876953 26.8251953,41.6894531 26.8632812,41.8710938 C26.9101562,42.0996094 26.9716797,42.2929688 27.0947266,42.2929688 L27.0947266,42.2929688 Z M29.6875,43.453125 L32.1015625,43.453125 L32.1015625,42.9550781 L31.1933594,42.9550781 L31.1933594,39.0791016 L30.6015625,39.0791016 L29.6171875,39.2958984 L29.6171875,39.8349609 L30.6074219,39.6123047 L30.6074219,42.9550781 L29.6875,42.9550781 L29.6875,43.453125 Z M34.3134766,43.5380859 C34.7792969,43.5380859 35.1337891,43.3476562 35.3740234,42.9638672 C35.6083984,42.5888672 35.7314453,42.0351562 35.7314453,41.2705078 C35.7314453,40.5058594 35.6083984,39.9492188 35.3740234,39.5742188 C35.1308594,39.1845703 34.7734375,39 34.3134766,39 C33.8447266,39 33.4931641,39.1904297 33.2558594,39.5742188 C33.0185547,39.9580078 32.8984375,40.5234375 32.8984375,41.2705078 C32.8984375,42.0146484 33.0185547,42.5800781 33.2558594,42.9638672 C33.4931641,43.3476562 33.8447266,43.5380859 34.3134766,43.5380859 L34.3134766,43.5380859 Z M34.3134766,43.0693359 C34.0439453,43.0693359 33.8388672,42.9287109 33.6982422,42.6240234 C33.5605469,42.3310547 33.4931641,41.8798828 33.4931641,41.2705078 C33.4931641,40.640625 33.5605469,40.2070312 33.6982422,39.9140625 C33.8330078,39.6181641 34.0380859,39.46875 34.3134766,39.46875 C34.6035156,39.46875 34.8027344,39.6240234 34.9345703,39.9169922 C35.0693359,40.2099609 35.1367188,40.6611328 35.1367188,41.2705078 C35.1367188,41.8769531 35.0693359,42.328125 34.9345703,42.6240234 C34.8027344,42.9140625 34.5976562,43.0693359 34.3134766,43.0693359 L34.3134766,43.0693359 Z M34.3193359,42.2929688 C34.421875,42.2929688 34.5097656,42.1552734 34.5595703,41.8652344 C34.5976562,41.625 34.609375,41.3583984 34.609375,41.2792969 C34.609375,41.1445312 34.5830078,40.8632812 34.5449219,40.6699219 C34.4892578,40.3974609 34.4160156,40.2421875 34.3076172,40.2421875 C34.2109375,40.2421875 34.1347656,40.3828125 34.0791016,40.6611328 C34.0322266,40.8779297 34.0205078,41.1621094 34.0205078,41.2558594 C34.0205078,41.3876953 34.0498047,41.6894531 34.0878906,41.8710938 C34.1347656,42.0996094 34.1962891,42.2929688 34.3193359,42.2929688 L34.3193359,42.2929688 Z M36.9121094,43.453125 L39.3261719,43.453125 L39.3261719,42.9550781 L38.4179688,42.9550781 L38.4179688,39.0791016 L37.8261719,39.0791016 L36.8417969,39.2958984 L36.8417969,39.8349609 L37.8320312,39.6123047 L37.8320312,42.9550781 L36.9121094,42.9550781 L36.9121094,43.453125 Z M41.5380859,43.5380859 C42.0039062,43.5380859 42.3583984,43.3476562 42.5986328,42.9638672 C42.8330078,42.5888672 42.9560547,42.0351562 42.9560547,41.2705078 C42.9560547,40.5058594 42.8330078,39.9492188 42.5986328,39.5742188 C42.3554688,39.1845703 41.9980469,39 41.5380859,39 C41.0693359,39 40.7177734,39.1904297 40.4804688,39.5742188 C40.2431641,39.9580078 40.1230469,40.5234375 40.1230469,41.2705078 C40.1230469,42.0146484 40.2431641,42.5800781 40.4804688,42.9638672 C40.7177734,43.3476562 41.0693359,43.5380859 41.5380859,43.5380859 L41.5380859,43.5380859 Z M41.5380859,43.0693359 C41.2685547,43.0693359 41.0634766,42.9287109 40.9228516,42.6240234 C40.7851562,42.3310547 40.7177734,41.8798828 40.7177734,41.2705078 C40.7177734,40.640625 40.7851562,40.2070312 40.9228516,39.9140625 C41.0576172,39.6181641 41.2626953,39.46875 41.5380859,39.46875 C41.828125,39.46875 42.0273438,39.6240234 42.1591797,39.9169922 C42.2939453,40.2099609 42.3613281,40.6611328 42.3613281,41.2705078 C42.3613281,41.8769531 42.2939453,42.328125 42.1591797,42.6240234 C42.0273438,42.9140625 41.8222656,43.0693359 41.5380859,43.0693359 L41.5380859,43.0693359 Z M41.5439453,42.2929688 C41.6464844,42.2929688 41.734375,42.1552734 41.7841797,41.8652344 C41.8222656,41.625 41.8339844,41.3583984 41.8339844,41.2792969 C41.8339844,41.1445312 41.8076172,40.8632812 41.7695312,40.6699219 C41.7138672,40.3974609 41.640625,40.2421875 41.5322266,40.2421875 C41.4355469,40.2421875 41.359375,40.3828125 41.3037109,40.6611328 C41.2568359,40.8779297 41.2451172,41.1621094 41.2451172,41.2558594 C41.2451172,41.3876953 41.2744141,41.6894531 41.3125,41.8710938 C41.359375,42.0996094 41.4208984,42.2929688 41.5439453,42.2929688 L41.5439453,42.2929688 Z" id="code" sketch:type="MSShapeGroup"></path>
        </g>
    </g>
</svg>