<?xml version="1.0" encoding="UTF-8" standalone="no"?>
<svg width="41px" height="35px" viewBox="0 0 41 35" version="1.1" xmlns="http://www.w3.org/2000/svg" xmlns:xlink="http://www.w3.org/1999/xlink" xmlns:sketch="http://www.bohemiancoding.com/sketch/ns">
    <!-- Generator: Sketch 3.4.4 (17249) - http://www.bohemiancoding.com/sketch -->
    <title>image</title>
    <desc>Created with Sketch.</desc>
    <defs></defs>
    <g id="Icons" stroke="none" stroke-width="1" fill="none" fill-rule="evenodd" sketch:type="MSPage">
        <g id="Images" sketch:type="MSArtboardGroup" transform="translate(-4.000000, -7.000000)" fill="#000000">
            <g id="image" sketch:type="MSLayerGroup" transform="translate(4.000000, 7.000000)">
                <path d="M17.8189583,21.4821495 C21.2524863,24.0576159 25.1076756,20.2243636 22.4572329,16.8702678 C19.0839423,14.2349068 15.228753,18.0681591 17.8189583,21.4821495" id="Fill-1" sketch:type="MSShapeGroup"></path>
                <path d="M38.3598888,5.66998371 L32.0952062,5.66998371 C31.6133075,5.66998371 31.1314089,5.72987828 30.7699849,5.43040544 L25.8907609,0.698734627 C25.5293369,0.339367224 25.0474382,0.279472656 24.5655396,0.279472656 L16.132313,0.279472656 C15.6504143,0.279472656 15.1685157,0.459156358 14.8070917,0.818523762 L9.92786773,5.37051087 C9.56644374,5.72987828 9.08454508,5.61008914 8.60264641,5.61008914 L2.33796381,5.61008914 C1.31392915,5.61008914 0.470606497,6.98766419 0.470606497,8.0657664 L0.470606497,32.1433824 C0.470606497,33.1615901 1.31392915,34.419376 2.33796381,34.419376 L38.3598888,34.419376 C39.3839234,34.419376 40.2272461,33.2214847 40.2272461,32.1433824 L40.2272461,8.12566097 C40.2272461,7.04755876 39.3839234,5.66998371 38.3598888,5.66998371 L38.3598888,5.66998371 Z M18.5418063,3.27420102 L22.1560463,3.27420102 C23.1800809,3.27420102 23.9631663,4.05283039 23.9631663,5.07103804 C23.9631663,6.08924568 23.1800809,6.86787506 22.1560463,6.86787506 L18.5418063,6.86787506 C17.5177717,6.86787506 16.7346863,6.08924568 16.7346863,5.07103804 C16.7346863,4.05283039 17.5177717,3.27420102 18.5418063,3.27420102 L18.5418063,3.27420102 Z M15.3492277,24.1175104 C9.80739307,16.8702678 18.0599077,8.66471207 25.3486249,14.1750123 C30.8904595,21.4222549 22.6379449,29.6278106 15.3492277,24.1175104 L15.3492277,24.1175104 Z M34.8058861,12.8573318 C33.7818515,12.8573318 32.9987662,12.0787024 32.9987662,11.0604948 C32.9987662,10.0422871 33.7818515,9.26365775 34.8058861,9.26365775 C35.8299208,9.26365775 36.6130061,10.0422871 36.6130061,11.0604948 C36.6130061,12.0787024 35.8299208,12.8573318 34.8058861,12.8573318 L34.8058861,12.8573318 Z" id="Fill-2" sketch:type="MSShapeGroup"></path>
            </g>
        </g>
    </g>
</svg>