<?xml version="1.0" encoding="utf-8"?>
<!-- Generator: Adobe Illustrator 19.1.0, SVG Export Plug-In . SVG Version: 6.00 Build 0)  -->
<svg version="1.1" id="Layer_1" xmlns="http://www.w3.org/2000/svg" xmlns:xlink="http://www.w3.org/1999/xlink" x="0px" y="0px"
	 viewBox="0 0 21 21" style="enable-background:new 0 0 21 21;" xml:space="preserve">
<style type="text/css">
	.st0{fill-rule:evenodd;clip-rule:evenodd;fill:#FFFFFF;}
</style>
<path id="mag" class="st0" d="M1.9,9.3c0-4.1,3.4-7.5,7.5-7.5s7.5,3.4,7.5,7.5s-3.4,7.5-7.5,7.5S1.9,13.4,1.9,9.3z M20.7,19.4l-4.2-4.2
	c1.3-1.6,2.1-3.7,2.1-5.9c0-5.1-4.2-9.3-9.3-9.3S0,4.2,0,9.3s4.2,9.3,9.3,9.3c2.2,0,4.3-0.8,5.9-2.1l4.2,4.2
	c0.2,0.2,0.4,0.3,0.7,0.3c0.2,0,0.5-0.1,0.7-0.3C21.1,20.3,21.1,19.8,20.7,19.4z"/>
	
</svg>
