<?xml version="1.0" encoding="UTF-8" standalone="no"?>
<svg width="41px" height="45px" viewBox="0 0 41 45" version="1.1" xmlns="http://www.w3.org/2000/svg" xmlns:xlink="http://www.w3.org/1999/xlink" xmlns:sketch="http://www.bohemiancoding.com/sketch/ns">
    <!-- Generator: Sketch 3.4.4 (17249) - http://www.bohemiancoding.com/sketch -->
    <title>note</title>
    <desc>Created with Sketch.</desc>
    <defs></defs>
    <g id="Icons" stroke="none" stroke-width="1" fill="none" fill-rule="evenodd" sketch:type="MSPage">
        <g id="Warning" sketch:type="MSArtboardGroup" transform="translate(-4.000000, 0.000000)" fill="#000000">
            <g id="note" sketch:type="MSLayerGroup" transform="translate(4.000000, 0.000000)">
                <path d="M39.8297429,14.0808517 L39.8309143,14.0773206 L39.8279857,14.0761435 L39.8045571,14.0090526 L39.7260714,14.0367129 L37.5964143,13.2057273 L38.5979857,10.612134 L12.1904714,0.312502392 L6.73747143,14.427488 C4.18434286,21.0335885 0.593914286,25.4333397 0.558185714,25.47689 L0.0398285714,26.1054258 L3.24954286,27.357201 L1.88951429,30.8777081 L3.47035714,33.8779665 L30.4811571,44.4141818 L40.959,17.2982727 L39.8297429,14.0808517 L39.8297429,14.0808517 Z M7.82982857,14.8535742 L12.8587714,1.83558373 L37.0821571,11.2836316 L32.0526286,24.3022105 C29.8989571,29.8772297 27.0061143,33.8803206 26.1339857,35.020866 L1.95628571,25.5904737 C3.05567143,24.125067 5.74702857,20.243799 7.82982857,14.8535742 L7.82982857,14.8535742 Z M26.5076714,36.4291866 L26.7771,36.1025598 C26.9288,35.9189426 30.5204,31.522134 33.1449857,24.7277081 L37.1723571,14.3027225 L38.3150857,14.7482297 L28.5529857,40.0161962 L3.40592857,30.2073876 L4.34248571,27.7838756 L26.5076714,36.4291866 L26.5076714,36.4291866 Z M29.8140286,42.891689 L4.34775714,32.9581148 L3.75442857,31.6057033 L29.2212857,41.5392775 L39.1790143,15.7657751 L39.7096714,17.2788517 L29.8140286,42.891689 L29.8140286,42.891689 Z" id="Shape" sketch:type="MSShapeGroup"></path>
            </g>
        </g>
    </g>
</svg>