<?xml version="1.0" encoding="UTF-8" standalone="no"?>
<svg width="41px" height="38px" viewBox="0 0 41 38" version="1.1" xmlns="http://www.w3.org/2000/svg" xmlns:xlink="http://www.w3.org/1999/xlink" xmlns:sketch="http://www.bohemiancoding.com/sketch/ns">
    <!-- Generator: Sketch 3.4.4 (17249) - http://www.bohemiancoding.com/sketch -->
    <title>text</title>
    <desc>Created with Sketch.</desc>
    <defs></defs>
    <g id="Icons" stroke="none" stroke-width="1" fill="none" fill-rule="evenodd" sketch:type="MSPage">
        <g id="Text" sketch:type="MSArtboardGroup" transform="translate(-4.000000, -5.000000)" fill="#000000">
            <g id="text" sketch:type="MSLayerGroup" transform="translate(4.000000, 5.000000)">
                <path d="M0,0.342284049 L41,0.342284049 L41,3.76512454 L0,3.76512454 L0,0.342284049 Z" id="Fill-1" sketch:type="MSShapeGroup"></path>
                <path d="M0,7.18796503 L41,7.18796503 L41,10.6108055 L0,10.6108055 L0,7.18796503 Z" id="Fill-2" sketch:type="MSShapeGroup"></path>
                <path d="M0,14.033646 L41,14.033646 L41,17.4564865 L0,17.4564865 L0,14.033646 Z" id="Fill-3" sketch:type="MSShapeGroup"></path>
                <path d="M0,20.879327 L41,20.879327 L41,24.3021675 L0,24.3021675 L0,20.879327 Z" id="Fill-4" sketch:type="MSShapeGroup"></path>
                <path d="M0,27.725008 L41,27.725008 L41,31.1478485 L0,31.1478485 L0,27.725008 Z" id="Fill-5" sketch:type="MSShapeGroup"></path>
                <path d="M0,34.570689 L41,34.570689 L41,37.9935294 L0,37.9935294 L0,34.570689 Z" id="Fill-6" sketch:type="MSShapeGroup"></path>
            </g>
        </g>
    </g>
</svg>