<?xml version="1.0" encoding="UTF-8" standalone="no"?>
<svg width="100%" height="100%" viewBox="0 0 20 43" version="1.1" xmlns="http://www.w3.org/2000/svg" xmlns:xlink="http://www.w3.org/1999/xlink" xmlns:sketch="http://www.bohemiancoding.com/sketch/ns">
    <!-- Generator: Sketch 3.4.4 (17249) - http://www.bohemiancoding.com/sketch -->
    <title>Imported Layers Copy</title>
    <desc>Created with Sketch.</desc>
    <defs>
        <rect id="path-1" x="0" y="0" width="81" height="59"></rect>
    </defs>
    <g id="Icons" stroke="none" stroke-width="1" fill="none" fill-rule="evenodd" sketch:type="MSPage">
        <g id="pencil" sketch:type="MSArtboardGroup" transform="translate(-14.000000, 0.000000)">
            <g id="Imported-Layers-Copy" sketch:type="MSLayerGroup" transform="translate(-17.000000, -6.000000)">
                <mask id="mask-2" sketch:name="Mask" fill="white">
                    <use xlink:href="#path-1"></use>
                </mask>
                <use id="Mask" sketch:type="MSShapeGroup" xlink:href="#path-1"></use>
                <g mask="url(#mask-2)" id="Fill-1" fill="#202020" sketch:type="MSShapeGroup">
                    <g transform="translate(40.955551, -42.608276) rotate(-45.000000) translate(-40.955551, 42.608276) translate(-24.544449, -108.108276)">
                        <path d="M126.562671,3.86072094 C124.868036,2.15879538 123.268591,0.551122029 121.150297,0.179499043 C120.841938,0.122947719 120.522853,0.091979137 120.194384,0.091979137 C118.102904,0.091979137 115.936346,1.28898216 113.374283,3.8620674 L108.764984,8.50735473 C108.763643,8.50870119 108.762303,8.50870119 108.760962,8.51004765 L9.2185986,108.482017 C9.21725791,108.483363 9.21725791,108.48471 9.21591722,108.486056 C9.11134324,108.592427 9.02687964,108.718994 8.96922988,108.859026 L8.96788919,108.861719 C8.96788919,108.863065 8.96788919,108.864411 8.96654849,108.865758 L3.37854399,122.355942 C3.3772033,122.357288 3.3772033,122.358635 3.37586261,122.361327 L0.693137795,129.055927 L0.693137795,129.05862 C0.63816942,129.198652 0.608674195,129.348109 0.611355579,129.501605 C0.612696271,129.653755 0.644872881,129.803212 0.703863331,129.940551 L0.703863331,129.944591 C0.758831706,130.071158 0.837932537,130.177528 0.926418213,130.27178 C0.95055067,130.29871 0.978705203,130.31756 1.00551904,130.341796 C1.08730126,130.414505 1.17444624,130.472403 1.27231676,130.518183 C1.29242715,130.527608 1.30583407,130.546458 1.32862583,130.554537 C1.34069206,130.559923 1.35678036,130.558576 1.37018728,130.562616 C1.49219026,130.607049 1.61955601,130.638018 1.75228452,130.638018 C1.75362521,130.638018 1.75496591,130.639364 1.7563066,130.639364 C1.75764729,130.639364 1.75764729,130.638018 1.75898798,130.638018 C1.89976065,130.638018 2.03517055,130.604356 2.16387698,130.553191 C2.1786246,130.546458 2.1947129,130.549151 2.21080121,130.542419 L22.0302519,121.952004 C22.0664506,121.935846 22.0905831,121.906224 22.1241004,121.886027 C22.2032012,121.84294 22.2796206,121.797161 22.3453146,121.73657 C22.3587215,121.724452 22.3748098,121.720412 22.386876,121.708294 L107.491327,36.2538579 L121.925217,21.7444039 L126.562671,17.103156 C133.130722,10.489344 129.797761,7.12588667 126.562671,3.86072094 L126.562671,3.86072094 Z M8.55763742,125.283146 L5.79447108,122.518863 L10.7965932,110.442463 L15.0908298,110.411494 L15.0908298,114.569363 C15.0908298,115.206238 15.6043149,115.720586 16.2384622,115.720586 L20.4294656,115.720586 L20.4294656,120.135629 L8.55763742,125.283146 L8.55763742,125.283146 Z M22.7140049,114.628607 C22.7153456,114.607064 22.7260711,114.590906 22.7260711,114.569363 C22.7260711,113.932487 22.212586,113.418139 21.5784387,113.418139 L17.3874353,113.418139 L17.3874353,109.252192 L17.3874353,109.248153 L17.3874353,109.244113 C17.3874353,109.159286 17.3565994,109.086577 17.3378297,109.008483 C17.3230821,108.938467 17.3217414,108.864411 17.2949276,108.801128 C17.2654323,108.731112 17.2118047,108.677253 17.1702432,108.615316 C17.1286818,108.554726 17.0991865,108.486056 17.0482402,108.434891 C16.9905905,108.378339 16.914171,108.343331 16.8457957,108.297552 C16.7908274,108.262544 16.7452438,108.214071 16.683572,108.189835 C16.5468214,108.130591 16.3966639,108.099622 16.2384622,108.099622 L16.2304181,108.099622 L12.8196975,108.125205 L95.1180795,25.4579409 L105.051267,35.4325172 L22.7260711,118.111899 L22.7260711,114.687851 C22.7260711,114.666308 22.7153456,114.65015 22.7140049,114.628607 L22.7140049,114.628607 Z M96.7403169,23.8300706 L100.098751,20.4612275 L110.023894,30.4384968 L106.66546,33.8127258 L96.7403169,23.8300706 L96.7403169,23.8300706 Z M101.129743,19.4257996 L102.979898,17.5703776 L112.915767,27.5355288 L111.064271,29.3949902 L101.129743,19.4257996 L101.129743,19.4257996 Z M104.020275,16.5268711 L105.871771,14.6687561 L115.803617,24.6352537 L113.956144,26.4906758 L104.020275,16.5268711 L104.020275,16.5268711 Z M106.910807,13.6252496 L109.57074,10.9565656 L119.495883,20.9257562 L116.838632,23.5957866 L106.910807,13.6252496 L106.910807,13.6252496 Z"></path>
                    </g>
                </g>
            </g>
        </g>
    </g>
</svg>