<?xml version="1.0" encoding="UTF-8" standalone="no"?>
<svg width="100%" height="100%" viewBox="0 0 48 48" version="1.1" xmlns="http://www.w3.org/2000/svg" xmlns:xlink="http://www.w3.org/1999/xlink" xmlns:sketch="http://www.bohemiancoding.com/sketch/ns">
    <!-- Generator: Sketch 3.4.4 (17249) - http://www.bohemiancoding.com/sketch -->
    <title>trash</title>
    <desc>Created with Sketch.</desc>
    <defs></defs>
    <g id="Icons" stroke="none" stroke-width="1" fill="none" fill-rule="evenodd" sketch:type="MSPage">
        <g id="trash" sketch:type="MSArtboardGroup" fill="#000000">
            <path d="M43.9990769,5.83360599 C43.9670768,4.82120268 43.1162741,4 42.1022707,4 L37.6638563,4 C37.6638563,4 26.9646213,4.23800078 23.3954097,4.23560077 C20.128599,4.23320076 10.335367,4 10.335367,4 L5.89775252,4 C4.88374921,4 4.03254643,4.82120268 4.00094633,5.83360599 C3.96854623,6.8492093 4.77214885,7.67761201 5.79215218,7.67761201 L7.18095671,7.67761201 C7.61815814,10.3960209 11.1741698,32.4592929 12.6973747,40.2413183 C12.9377755,41.4677223 13.6665779,42.897727 14.9421821,43.0361275 C15.6261843,43.213728 18.8301948,43.9777305 23.4254098,43.9777305 C28.1182251,43.9777305 32.1606383,43.1845279 32.8574406,43.0401275 C34.1518448,42.9281271 34.8966472,41.4837224 35.143448,40.2461184 C36.7026531,32.4348928 40.3706651,10.3692208 40.8170665,7.67801201 L42.2078711,7.67801201 C43.2270744,7.67761201 44.031077,6.8492093 43.9990769,5.83360599 L43.9990769,5.83360599 Z M34.6786465,7.75081225 C34.3678455,8.1636136 34.0574445,8.57601494 33.7482435,8.98761629 C33.4066424,8.592415 33.0654412,8.19161369 32.7246401,7.78761237 C33.4106424,7.77481233 34.0694445,7.76201228 34.6786465,7.75081225 L34.6786465,7.75081225 Z M29.0898283,8.06081326 C30.0070312,9.24681713 30.9326343,10.3916209 31.8654373,11.4980245 C31.6910367,11.7312252 31.5170362,11.964026 31.3426356,12.1972268 C30.4170326,13.4352308 29.4934296,14.6708348 28.5646265,15.8920388 C27.5850233,14.715235 26.6506203,13.5316311 25.7630174,12.3644273 C26.858221,11.0004229 27.9662246,9.56761818 29.0898283,8.06081326 L29.0898283,8.06081326 Z M22.0322052,23.891265 C21.041802,24.9840685 20.0285987,26.035272 18.9861953,27.0336752 C17.9289918,25.8752714 16.8845884,24.6840675 15.852985,23.4608635 C16.9037885,22.4564603 17.9145918,21.4176569 18.8865949,20.3596534 C19.9001982,21.5528573 20.9494017,22.7332612 22.0322052,23.891265 L22.0322052,23.891265 Z M21.0022018,17.9616456 C21.054202,17.9004454 21.1054022,17.8392452 21.1574024,17.777645 C22.0946054,16.7424416 23.0370085,15.6604381 23.9882116,14.5280344 C24.9474147,15.6728381 25.9006178,16.7668417 26.8482209,17.8124451 C26.8898211,17.8620453 26.9310212,17.9112454 26.9726213,17.9604456 C25.9914181,19.2184497 24.9982149,20.4512537 23.9878116,21.6480576 C22.9766083,20.4516537 21.983405,19.2192497 21.0022018,17.9616456 L21.0022018,17.9616456 Z M23.9874116,25.9136716 C25.027815,26.955275 26.0958185,27.9720783 27.1982221,28.9528815 C26.1402186,30.0616851 25.0702151,31.1400886 23.9874116,32.187692 C22.9038081,31.1400886 21.8334046,30.0620851 20.7754011,28.9532815 C21.8778047,27.9720783 22.9462082,26.954875 23.9874116,25.9136716 L23.9874116,25.9136716 Z M25.943418,23.891265 C27.0262215,22.7332612 28.0754249,21.5524573 29.0894283,20.3596534 C30.0606314,21.4172569 31.0714347,22.4560603 32.1214382,23.4600635 C31.0902348,24.6832675 30.0458314,25.8740714 28.9886279,27.0328752 C27.9466245,26.0344719 26.9334212,24.9836685 25.943418,23.891265 L25.943418,23.891265 Z M23.1294088,7.91561279 C23.7422108,7.91641279 24.5538134,7.91081277 25.4818165,7.90041274 C25.2850158,8.17601364 25.0902152,8.44761452 24.8966146,8.7152154 C24.6014136,9.12841675 24.2966126,9.55001812 23.9882116,9.97441951 C23.6790106,9.55001812 23.3738096,9.12841675 23.0778086,8.7152154 C22.887408,8.45201454 22.6954074,8.18441366 22.5018067,7.91321278 C22.7298075,7.91481278 22.9410082,7.91561279 23.1294088,7.91561279 L23.1294088,7.91561279 Z M18.8865949,8.06081326 C20.0105986,9.56761818 21.1182022,11.0004229 22.2126058,12.3644273 C21.3250029,13.5316311 20.3901998,14.715635 19.4105966,15.8928388 C18.4813936,14.6712348 17.5573906,13.4352308 16.6321876,12.1968268 C16.458187,11.964026 16.2841864,11.7316252 16.1101859,11.4992245 C17.0433889,10.3924209 17.9693919,9.24761714 18.8865949,8.06081326 L18.8865949,8.06081326 Z M15.241783,7.7972124 C14.9033819,8.19801371 14.5649808,8.595215 14.2261797,8.98761629 C13.9185787,8.57801495 13.6097777,8.16801361 13.3009767,7.75761227 C13.9097787,7.77001231 14.5653808,7.78361235 15.241783,7.7972124 L15.241783,7.7972124 Z M9.83016537,8.45001453 C10.5257676,9.44721779 11.25017,10.4696211 11.9981724,11.5056245 C11.5297709,12.0220262 11.0609694,12.5304279 10.5913679,13.0320295 C10.2713668,11.1152232 10.0077659,9.52481804 9.83016537,8.45001453 L9.83016537,8.45001453 Z M12.1097728,23.3684632 L11.9169722,22.3116598 L12.3577736,23.0904623 L12.1097728,23.3684632 L12.1097728,23.3684632 Z M11.2309699,16.848042 C12.1189728,15.950439 13.0005757,15.022836 13.8741786,14.0588328 C14.933782,15.4724375 16.0401856,16.9004421 17.1933894,18.3212468 C16.1697861,19.3908503 15.1489827,20.4064536 14.1273794,21.3700567 C13.2085764,20.231253 11.2873701,17.1848431 11.2309699,16.848042 L11.2309699,16.848042 Z M13.7237781,31.3708894 C13.4293771,29.7020839 13.1225761,27.9396782 12.8153751,26.1584724 C13.1049761,25.9212716 13.392177,25.6816708 13.6761779,25.43727 C14.7417814,26.647674 15.8209849,27.8080777 16.9037885,28.9196814 C15.8785851,29.7932842 14.8201817,30.6124869 13.7237781,31.3708894 L13.7237781,31.3708894 Z M15.528984,39.4393157 C15.528984,39.4393157 15.3953835,39.6201163 15.2721831,39.7477167 C15.2629831,39.7121166 15.2545831,39.6777165 15.2477831,39.6437164 C15.0745825,38.7781136 14.8741818,37.7245101 14.6537811,36.5349062 C15.3513834,37.1913084 16.0549857,37.8381105 16.763788,38.4765126 C16.3453866,38.8049136 15.9329853,39.1265147 15.528984,39.4393157 L15.528984,39.4393157 Z M17.7137911,40.7833201 C18.0053921,40.5545194 18.296193,40.3237186 18.585394,40.0905178 C18.9489951,40.4069189 19.3137963,40.7213199 19.6797975,41.0341209 C18.9373951,40.9601207 18.2765929,40.8721204 17.7137911,40.7833201 L17.7137911,40.7833201 Z M18.912195,36.763307 C17.7245911,35.6145032 16.5537873,34.4396994 15.4005836,33.2404955 C16.5313872,32.4408929 17.6305908,31.5976901 18.7025943,30.7200872 C19.8533981,31.8432909 21.0030018,32.9140944 22.1410056,33.9336977 C21.3390029,34.6749002 20.5294003,35.3997025 19.7141976,36.1081048 C19.4449968,36.3293056 19.1773959,36.5477063 18.912195,36.763307 L18.912195,36.763307 Z M24.2278124,41.2117215 C24.0706119,41.2145215 23.9122113,41.2173215 23.7538108,41.2185215 C22.7002074,40.2957185 21.659004,39.3557154 20.6314006,38.3965123 C20.9754018,38.1041114 21.3186029,37.8093104 21.660604,37.5117094 C22.4246065,36.8837074 23.201009,36.2321052 23.9874116,35.556103 C24.7802142,36.2373053 25.5630167,36.8945074 26.3334193,37.5281095 C26.6686203,37.8201104 27.0054214,38.1085114 27.3426225,38.3953123 C26.3170192,39.3529154 25.2786158,40.2905185 24.2278124,41.2117215 L24.2278124,41.2117215 Z M28.4154261,40.9309206 C28.7410271,40.6525197 29.0654282,40.3721188 29.3898292,40.0901178 C29.6470301,40.2977185 29.9054309,40.5029192 30.1642318,40.7073199 C29.6482301,40.7825201 29.0598282,40.8597204 28.4154261,40.9309206 L28.4154261,40.9309206 Z M29.0614282,36.762907 C28.8022273,36.5529063 28.5410265,36.3397056 28.2794256,36.1241049 C27.4582229,35.4097026 26.6426203,34.6809002 25.8350176,33.9336977 C26.9726213,32.9140944 28.1218251,31.8432909 29.2726289,30.7208873 C30.3438323,31.5972901 31.4430359,32.4412929 32.5734396,33.2404955 C31.4202359,34.4396994 30.249832,35.6145032 29.0614282,36.762907 L29.0614282,36.762907 Z M32.5974397,39.6301163 C32.5130394,39.531316 32.4450392,39.4393157 32.4450392,39.4393157 C32.0402379,39.1265147 31.6286365,38.8053137 31.2106352,38.4773126 C31.8698373,37.8833106 32.5254395,37.2817087 33.1754416,36.6717067 C32.9614409,37.7985104 32.7662403,38.8005136 32.5974397,39.6301163 L32.5974397,39.6301163 Z M34.1662448,31.3116892 C33.1006414,30.5700868 32.070238,29.7704841 31.0718347,28.9200814 C32.1546383,27.8080777 33.2342418,26.647674 34.2998453,25.43727 C34.5630461,25.6636707 34.829447,25.8868715 35.0974479,26.1084722 C34.7826468,27.885678 34.4686458,29.6436837 34.1662448,31.3116892 L34.1662448,31.3116892 Z M35.5726494,23.3684632 L35.3250486,23.0904623 L35.7650501,22.3116598 L35.5726494,23.3684632 L35.5726494,23.3684632 Z M33.8466438,21.3700567 C32.8254405,20.4064536 31.8050371,19.3916503 30.7818338,18.3220468 C31.9350375,16.9008421 33.0418412,15.4728375 34.1022446,14.0584328 C34.9678474,15.014436 35.8422503,15.934439 36.7226532,16.8252419 C36.659853,17.1860431 34.7522467,20.2480531 33.8466438,21.3700567 L33.8466438,21.3700567 Z M37.3778553,13.0272295 C36.9106538,12.5272278 36.4434523,12.0212262 35.9770507,11.5068245 C36.7334532,10.4604211 37.4646556,9.42761772 38.1670579,8.42121444 C37.9834573,9.49521794 37.7098564,11.0956232 37.3778553,13.0272295 L37.3778553,13.0272295 Z" id="Shape" sketch:type="MSShapeGroup"></path>
        </g>
    </g>
</svg>