<?xml version="1.0" encoding="UTF-8" standalone="no"?>
<svg width="100%" height="100%" viewBox="0 0 48 48" version="1.1" xmlns="http://www.w3.org/2000/svg" xmlns:xlink="http://www.w3.org/1999/xlink" xmlns:sketch="http://www.bohemiancoding.com/sketch/ns">
    <!-- Generator: Sketch 3.4.4 (17249) - http://www.bohemiancoding.com/sketch -->
    <title>Comments</title>
    <desc>Created with Sketch.</desc>
    <defs></defs>
    <g id="Icons" stroke="none" stroke-width="1" fill="none" fill-rule="evenodd" sketch:type="MSPage">
        <g id="Comments" sketch:type="MSArtboardGroup" stroke="#000000" fill="#000000">
            <g id="Group" sketch:type="MSLayerGroup" transform="translate(4.000000, 4.000000)">
                <g id="Shape" sketch:type="MSShapeGroup">
                    <path d="M20,40 C31.045695,40 40,31.045695 40,20 C40,8.95430503 31.045695,0 20,0 C8.95430503,0 0,8.95430503 0,20 C0,31.045695 8.95430503,40 20,40 L20,40 Z M11.25,11.25 C11.25,9.86928812 12.3667467,8.75 13.7495467,8.75 L27.5004533,8.75 C28.8809148,8.75 30,9.87209758 30,11.25 C30,12.6307119 28.8832533,13.75 27.5004533,13.75 L13.7495467,13.75 C12.3690852,13.75 11.25,12.6279024 11.25,11.25 L11.25,11.25 Z M11.25,28.75 C11.25,27.3692881 12.3667467,26.25 13.7495467,26.25 L27.5004533,26.25 C28.8809148,26.25 30,27.3720976 30,28.75 C30,30.1307119 28.8832533,31.25 27.5004533,31.25 L13.7495467,31.25 C12.3690852,31.25 11.25,30.1279024 11.25,28.75 L11.25,28.75 Z M6.25,20 C6.25,18.6192881 7.3682103,17.5 8.7510803,17.5 L32.4989197,17.5 C33.8802282,17.5 35,18.6220976 35,20 C35,21.3807119 33.8817897,22.5 32.4989197,22.5 L8.7510803,22.5 C7.36977176,22.5 6.25,21.3779024 6.25,20 L6.25,20 Z"></path>
                </g>
            </g>
        </g>
    </g>
</svg>