<?xml version="1.0" encoding="utf-8"?>
<!-- Generator: Adobe Illustrator 19.1.0, SVG Export Plug-In . SVG Version: 6.00 Build 0)  -->
<svg version="1.1" id="Layer_1" xmlns="http://www.w3.org/2000/svg" xmlns:xlink="http://www.w3.org/1999/xlink" x="0px" y="0px"
	 viewBox="-14 15 21 21" style="enable-background:new -14 15 21 21;" xml:space="preserve">
<style type="text/css">
	.st0{fill:#FFFFFF;}
</style>
<path class="st0" d="M-12.1,24.3c0-4.1,3.4-7.5,7.5-7.5s7.5,3.4,7.5,7.5s-3.4,7.5-7.5,7.5S-12.1,28.4-12.1,24.3z M6.7,34.4l-4.2-4.2
	c1.3-1.6,2.1-3.7,2.1-5.9c0-5.1-4.2-9.3-9.3-9.3s-9.3,4.2-9.3,9.3s4.2,9.3,9.3,9.3c2.2,0,4.3-0.8,5.9-2.1l4.2,4.2
	C5.6,35.9,5.8,36,6.1,36c0.2,0,0.5-0.1,0.7-0.3C7.1,35.3,7.1,34.8,6.7,34.4z"/>
</svg>
